<?xml version="1.0" encoding="UTF-8" standalone="no"?> <svg xmlns="http://www.w3.org/2000/svg" xmlns:xlink="http://www.w3.org/1999/xlink" xmlns:serif="http://www.serif.com/" width="100%" height="100%" viewBox="0 0 4157 2517" version="1.1" xml:space="preserve" style="fill-rule:evenodd;clip-rule:evenodd;stroke-miterlimit:10;"> <g transform="matrix(1,0,0,1,-171.755,-927.118)"> <g transform="matrix(4.16667,0,0,4.16667,0,0)"> <g transform="matrix(1,0,0,1,58.7734,350.232)"> <path d="M0,5.892L26.044,5.892L30.055,26.616L40.177,-20.317L44.951,12.292L49.682,-4.673L54.882,39.009L60.993,5.892L77.799,5.892L83.146,-9.346L88.112,39.009L99.379,-33.117L106.063,12.292L109.501,5.892L157.436,5.892" style="fill:none;fill-rule:nonzero;stroke:white;stroke-width:3.49px;"></path> </g> <g transform="matrix(1,0,0,1,876.376,348.898)"> <path d="M0,5.892L13.459,5.892L17.47,26.616L27.591,-20.317L32.365,12.292L37.097,-4.673L42.296,39.009L48.407,5.892L65.214,5.892L70.561,-9.346L75.526,39.009L86.794,-33.117L93.478,12.292L96.915,5.892L144.851,5.892" style="fill:none;fill-rule:nonzero;stroke:white;stroke-width:3.49px;"></path> </g> <g transform="matrix(1,0,0,1,460.644,346.436)"> <path d="M0,2.536L11.212,2.536L12.938,11.457L17.296,-8.747L19.351,5.291L21.388,-2.012L23.626,16.793L26.257,2.536L33.492,2.536L35.794,-4.024L37.932,16.793L42.782,-14.257L45.66,5.291L47.14,2.536L67.775,2.536" style="fill:none;fill-rule:nonzero;stroke:white;stroke-width:1.75px;"></path> </g> <g transform="matrix(1,0,0,1,407.119,321.209)"> <path d="M0,64.737C0,64.737 41.76,74.257 39.374,29.406C36.988,-15.444 -21.676,-44.216 -56.476,-42.523C-72.195,-41.759 -88.075,-41.121 -103.248,-36.252C-121.26,-30.472 -137.459,-18.453 -148.774,-2.415C-152.681,3.122 -156.647,8.562 -159.489,14.828C-162.364,21.165 -164.317,27.948 -165.599,34.84C-169.408,55.319 -170.087,77.737 -161.109,96.88C-160.098,99.036 -158.943,101.169 -157.271,102.794C-153.901,106.071 -147.748,106.066 -143.436,105.866C-141.138,105.759 -138.799,105.398 -136.758,104.271C-134.716,103.144 -133.001,101.145 -132.602,98.735C-132.325,97.059 -132.427,94.855 -130.941,94.225C-130.208,93.914 -129.382,94.179 -128.633,94.445C-125.083,95.706 -121.884,96.805 -118.16,97.057C-113.717,97.358 -109.245,97.246 -104.799,97.106C-104.799,97.106 -85.51,96.894 -77.356,98.375C-69.203,99.856 -45.141,107.26 -33.209,108.107C-21.278,108.953 -4.972,85.047 -4.972,85.047C-4.972,85.047 0.994,75.949 -4.176,67.91C-4.176,67.91 -6.2,63.966 0,64.737Z" style="fill:none;fill-rule:nonzero;stroke:white;stroke-width:3.49px;stroke-dasharray:13.78,13.78;"></path> </g> <g transform="matrix(1,0,0,1,257.015,299.127)"> <path d="M0,296.56C5.452,287.852 12.141,280.023 18.196,271.734C18.747,270.981 19.074,269.713 18.943,268.774C17.201,256.296 17.863,243.967 21.272,231.911C22.329,228.175 24.364,224.75 25.978,221.197C26.72,219.56 28.014,219.034 29.615,219.469C33.605,220.553 37.585,221.68 41.565,222.811C42.257,223.008 42.923,223.311 43.944,223.693C44.414,220.467 45.009,217.448 45.27,214.396C46.154,204.034 45.835,193.712 43.851,183.498C43.681,182.626 43.005,181.601 42.286,181.154C35.788,177.11 29.238,173.161 22.684,169.219C2.044,156.808 -15.159,140.548 -27.112,118.519C-34.477,104.947 -38.53,90.227 -39.753,74.625C-40.001,71.455 -40.061,68.269 -40.265,65.095C-40.301,64.533 -40.618,63.991 -40.805,63.44L-40.805,45.317C-40.297,40.009 -39.896,34.686 -39.258,29.396C-38.207,20.674 -37.028,11.968 -35.806,3.271C-35.726,2.705 -34.888,2.037 -34.278,1.824C-33.057,1.399 -31.737,1.308 -30.478,0.991C-26.185,-0.092 -22.694,-2.408 -19.66,-5.933C-11.067,-15.915 -1.414,-24.551 10.046,-30.655C25.809,-39.051 42.586,-43.665 60.042,-45.788C69.583,-46.949 79.144,-47.47 88.676,-46.288C94.852,-45.523 100.971,-44.108 107.055,-42.688C109.224,-42.181 110.905,-42.226 112.976,-43.326C120.931,-47.551 129.496,-48.686 138.295,-48.129C152.773,-47.212 166.411,-42.664 179.97,-37.544C186.583,-35.047 193.448,-33.213 200.307,-31.592C203.224,-30.903 206.523,-31.019 209.451,-31.712C212.03,-32.323 214.333,-34.248 216.466,-35.431C214.209,-25.363 207.407,-19.615 197.557,-17.253C201.343,-14.03 208.975,-12.216 212.984,-16.818C213.724,-11.643 212.227,-7.426 209.405,-3.72C205.126,1.899 199.158,4.689 192.915,6.93C192.154,7.203 191.36,7.373 190.394,7.643C192.359,11.413 194.391,14.998 196.146,18.73C204.629,36.768 206.421,55.735 202.867,75.399C200.792,86.875 196.637,97.492 190.933,107.431C190.08,108.917 190.331,109.727 191.568,110.571C194.213,112.377 196.835,114.222 199.797,116.28C197.461,116.773 195.317,117.225 192.96,117.722C194.665,123.616 197.68,128.67 201.096,133.461C203.787,137.235 206.909,140.685 209.388,144.601C212.439,149.419 213.087,149.805 207.618,153.667C204.732,155.706 201.518,157.232 198.394,158.865C196.72,159.74 195.872,160.681 196.621,162.841C197.345,164.933 197.704,167.169 198.2,169.348C199.32,174.273 198.699,176.93 194.526,179.09C190.521,181.164 188.627,183.764 188.759,188.6C188.84,191.585 187.069,194.106 184.535,195.742C184.189,195.966 183.867,196.232 183.522,196.459C176.628,200.998 176.556,201.393 177.597,209.754C178.32,215.556 176.926,217.293 172.54,218.667C166.764,220.476 160.988,220.147 155.217,218.966C145.21,216.918 135.747,213.213 126.623,208.381C117.804,203.71 108.798,203.803 99.888,208.189C96.598,209.809 94.037,212.39 92.194,215.792C88.295,222.991 84.723,230.292 83.67,238.706C83.426,240.658 83.874,241.627 85.551,242.482C94.824,247.209 104.141,251.86 113.242,256.944C119.162,260.251 124.369,264.649 127.666,271.147C129.395,274.555 129.906,277.837 127.955,281.382C125.911,285.095 124.16,288.992 122.093,292.69C121.358,294.005 121.341,294.814 122.143,296.086C131.933,311.629 140.873,327.806 147.347,345.246C129.071,342.769 110.796,340.219 92.621,336.995C68.863,332.779 44.695,328.22 21.862,319.864C15.171,317.414 -10.352,308.377 0,296.56Z" style="fill:none;fill-rule:nonzero;stroke:white;stroke-width:5.24px;"></path> </g> <g transform="matrix(-0.252211,-0.967672,-0.967672,0.252211,274.725,382.723)"> <path d="M-24.179,18.685L14.439,18.685" style="fill:none;fill-rule:nonzero;stroke:white;stroke-width:1.75px;"></path> </g> <g transform="matrix(0.460008,-0.887915,-0.887915,-0.460008,279.615,368.256)"> <path d="M-13.861,22.791L37.476,22.791" style="fill:none;fill-rule:nonzero;stroke:white;stroke-width:1.75px;"></path> </g> <g transform="matrix(0.875235,-0.483697,-0.483697,-0.875235,287.263,332.004)"> <path d="M-3.274,12.693L49.211,12.694" style="fill:none;fill-rule:nonzero;stroke:white;stroke-width:1.75px;"></path> </g> <g transform="matrix(0.984793,0.173733,0.173733,-0.984793,329.895,292.04)"> <path d="M-0.38,-4.337L49.548,-4.337" style="fill:none;fill-rule:nonzero;stroke:white;stroke-width:1.75px;"></path> </g> <g transform="matrix(0.757295,0.653073,0.653073,-0.757295,397.593,299.468)"> <path d="M-5.464,-14.703L39.564,-14.704" style="fill:none;fill-rule:nonzero;stroke:white;stroke-width:1.75px;"></path> </g> <g transform="matrix(-0.216124,0.976366,0.976366,0.216124,426.917,358.186)"> <path d="M-15.415,-12.376L9.936,-12.376" style="fill:none;fill-rule:nonzero;stroke:white;stroke-width:1.75px;"></path> </g> <g transform="matrix(0.437633,-0.899153,-0.899153,-0.437633,327.711,325.007)"> <path d="M-8.534,13.646L21.817,13.646" style="fill:none;fill-rule:nonzero;stroke:white;stroke-width:1.75px;"></path> </g> <g transform="matrix(0.533699,0.845674,0.845674,-0.533699,344.987,298.401)"> <path d="M-8.326,-15.1L27.385,-15.1" style="fill:none;fill-rule:nonzero;stroke:white;stroke-width:1.75px;"></path> </g> <g transform="matrix(0.745953,-0.665999,-0.665999,-0.745953,363.784,335.017)"> <path d="M-4.186,10.974L28.77,10.974" style="fill:none;fill-rule:nonzero;stroke:white;stroke-width:1.75px;"></path> </g> <g transform="matrix(0,1,1,0,396.867,326.181)"> <path d="M-16.396,-16.396L16.396,-16.396" style="fill:none;fill-rule:nonzero;stroke:white;stroke-width:1.75px;"></path> </g> <g transform="matrix(0.992519,0.122089,0.122089,-0.992519,278.607,323.923)"> <path d="M-0.117,-1.908L31.139,-1.908" style="fill:none;fill-rule:nonzero;stroke:white;stroke-width:1.75px;"></path> </g> <g transform="matrix(0.482021,0.876159,0.876159,-0.482021,294.626,328.217)"> <path d="M-8.334,-14.097L23.845,-14.097" style="fill:none;fill-rule:nonzero;stroke:white;stroke-width:1.75px;"></path> </g> <g transform="matrix(0.920929,-0.389731,-0.389731,-0.920929,260.576,379.875)"> <path d="M-1.545,7.616L37.538,7.616" style="fill:none;fill-rule:nonzero;stroke:white;stroke-width:1.75px;"></path> </g> <g transform="matrix(0.523189,-0.852217,-0.852217,-0.523189,291.814,411.362)"> <path d="M-13.196,23.586L42.155,23.586" style="fill:none;fill-rule:nonzero;stroke:white;stroke-width:1.75px;"></path> </g> <g transform="matrix(-0.0510924,-0.998694,-0.998694,0.0510924,314.825,379.808)"> <path d="M-16.365,15.55L14.774,15.55" style="fill:none;fill-rule:nonzero;stroke:white;stroke-width:1.75px;"></path> </g> <g transform="matrix(0.952669,-0.304011,-0.304011,-0.952669,265.326,417.773)"> <path d="M-0.889,5.712L36.688,5.712" style="fill:none;fill-rule:nonzero;stroke:white;stroke-width:1.75px;"></path> </g> <g transform="matrix(0.429327,-0.903149,-0.903149,-0.429327,314.617,355.123)"> <path d="M-8.221,13.011L20.591,13.011" style="fill:none;fill-rule:nonzero;stroke:white;stroke-width:1.75px;"></path> </g> <g transform="matrix(0.974674,0.22363,0.22363,-0.974674,303.879,358.722)"> <path d="M-0.427,-3.774L33.32,-3.773" style="fill:none;fill-rule:nonzero;stroke:white;stroke-width:1.75px;"></path> </g> <g transform="matrix(0.984849,0.173414,0.173414,-0.984849,315.214,327.135)"> <path d="M-0.224,-2.56L29.307,-2.561" style="fill:none;fill-rule:nonzero;stroke:white;stroke-width:1.75px;"></path> </g> <g transform="matrix(0.876649,-0.481131,-0.481131,-0.876649,311.689,368.331)"> <path d="M-2.969,11.583L45.177,11.582" style="fill:none;fill-rule:nonzero;stroke:white;stroke-width:1.75px;"></path> </g> <g transform="matrix(-0.0421549,0.999111,0.999111,0.0421549,359.387,349.514)"> <path d="M-11.533,-11.057L10.6,-11.057" style="fill:none;fill-rule:nonzero;stroke:white;stroke-width:1.75px;"></path> </g> <g transform="matrix(0.840638,-0.541597,-0.541597,-0.840638,312.6,405.614)"> <path d="M-2.944,10.006L34.004,10.006" style="fill:none;fill-rule:nonzero;stroke:white;stroke-width:1.75px;"></path> </g> <g transform="matrix(0.971077,0.238765,0.238765,-0.971077,307.283,395.729)"> <path d="M-0.599,-4.942L40.798,-4.942" style="fill:none;fill-rule:nonzero;stroke:white;stroke-width:1.75px;"></path> </g> <g transform="matrix(0.99557,-0.094027,-0.094027,-0.99557,348.545,410.246)"> <path d="M-0.076,1.617L34.318,1.617" style="fill:none;fill-rule:nonzero;stroke:white;stroke-width:1.75px;"></path> </g> <g transform="matrix(0.161075,-0.986942,-0.986942,-0.161075,397.838,395.11)"> <path d="M-10.992,12.932L15.213,12.932" style="fill:none;fill-rule:nonzero;stroke:white;stroke-width:1.75px;"></path> </g> <g transform="matrix(-0.0114471,0.999934,0.999934,0.0114471,357.116,394.399)"> <path d="M-11.398,-11.269L11.14,-11.269" style="fill:none;fill-rule:nonzero;stroke:white;stroke-width:1.75px;"></path> </g> <g transform="matrix(0.741663,0.670773,0.670773,-0.741663,367.273,375.102)"> <path d="M-4.462,-11.586L30.084,-11.587" style="fill:none;fill-rule:nonzero;stroke:white;stroke-width:1.75px;"></path> </g> <g transform="matrix(0.998017,0.0629431,0.0629431,-0.998017,359.206,373.366)"> <path d="M-0.026,-0.829L26.315,-0.829" style="fill:none;fill-rule:nonzero;stroke:white;stroke-width:1.75px;"></path> </g> <g transform="matrix(0.768137,-0.640286,-0.640286,-0.768137,363.615,369.228)"> <path d="M-3.028,8.361L23.089,8.361" style="fill:none;fill-rule:nonzero;stroke:white;stroke-width:1.75px;"></path> </g> <g transform="matrix(0.906967,0.421203,0.421203,-0.906967,357.234,330.99)"> <path d="M-1.017,-4.606L20.853,-4.606" style="fill:none;fill-rule:nonzero;stroke:white;stroke-width:1.75px;"></path> </g> <g transform="matrix(0.975352,-0.220654,-0.220654,-0.975352,383.104,349.894)"> <path d="M-0.437,3.914L35.039,3.914" style="fill:none;fill-rule:nonzero;stroke:white;stroke-width:1.75px;"></path> </g> <g transform="matrix(0.877962,0.47873,0.47873,-0.877962,386.804,343.106)"> <path d="M-2.135,-8.377L32.859,-8.377" style="fill:none;fill-rule:nonzero;stroke:white;stroke-width:1.75px;"></path> </g> <g transform="matrix(0.360064,0.932927,0.932927,-0.360064,393.711,353.598)"> <path d="M-8.217,-11.98L17.464,-11.98" style="fill:none;fill-rule:nonzero;stroke:white;stroke-width:1.75px;"></path> </g> <g transform="matrix(0.933216,-0.359316,-0.359316,-0.933216,392.208,379.656)"> <path d="M-0.817,4.393L23.636,4.393" style="fill:none;fill-rule:nonzero;stroke:white;stroke-width:1.75px;"></path> </g> <g transform="matrix(1,0,0,1,346.684,383.369)"> <path d="M0,-23.699C-0.344,-23.648 -0.687,-23.567 -1.028,-23.453C-2.753,-22.874 -4.361,-21.554 -5.802,-20.419C-7.781,-18.86 -9.589,-16.947 -10.748,-14.612C-11.91,-12.271 -12.509,-9.103 -11.616,-6.554C-10.793,-4.207 -8.865,-2.417 -6.76,-1.399C-4.212,-0.167 -1.327,0.176 1.437,0.402C3.842,0.599 6.616,0.265 8.553,-1.4C10.585,-3.147 12.063,-5.585 12.304,-8.378C12.569,-11.447 11.508,-14.482 10.124,-17.121C8.271,-20.652 4.063,-24.298 0,-23.699Z" style="fill:none;fill-rule:nonzero;stroke:white;stroke-width:1.49px;"></path> </g> <g transform="matrix(0,-1,-1,0,346.833,367.825)"> <ellipse cx="-3.888" cy="0" rx="4.136" ry="3.888" style="fill:none;stroke:white;stroke-width:1.49px;"></ellipse> </g> <g transform="matrix(0,-1,-1,0,297.771,352.404)"> <path d="M-8.129,-8.129C-12.905,-8.129 -16.776,-4.49 -16.776,-0.001C-16.776,4.489 -12.905,8.129 -8.129,8.129C-3.353,8.129 0.518,4.489 0.518,-0.001C0.518,-4.49 -3.353,-8.129 -8.129,-8.129" style="fill:white;fill-rule:nonzero;"></path> </g> <g transform="matrix(0,-1,-1,0,297.771,352.404)"> <ellipse cx="-8.129" cy="0" rx="8.647" ry="8.129" style="fill:none;stroke:white;stroke-width:1.49px;"></ellipse> </g> <g transform="matrix(0,-1,-1,0,301.525,394.328)"> <path d="M-5.369,-5.369C-8.523,-5.369 -11.081,-2.965 -11.081,0C-11.081,2.965 -8.523,5.369 -5.369,5.369C-2.214,5.369 0.343,2.965 0.343,0C0.343,-2.965 -2.214,-5.369 -5.369,-5.369" style="fill:white;fill-rule:nonzero;"></path> </g> <g transform="matrix(0,-1,-1,0,301.525,394.328)"> <ellipse cx="-5.369" cy="0" rx="5.712" ry="5.369" style="fill:none;stroke:white;stroke-width:1.49px;"></ellipse> </g> <g transform="matrix(0.143537,-0.989645,-0.989645,-0.143537,346.076,404.488)"> <path d="M-4.289,-3.711C-6.829,-3.753 -8.888,-1.847 -8.887,0.547C-8.888,2.939 -6.828,4.913 -4.289,4.955C-1.748,4.997 0.311,3.091 0.31,0.698C0.311,-1.695 -1.748,-3.669 -4.289,-3.711" style="fill:white;fill-rule:nonzero;"></path> </g> <g transform="matrix(0.143537,-0.989645,-0.989645,-0.143537,346.076,404.488)"> <path d="M-4.289,-3.711C-6.829,-3.753 -8.888,-1.847 -8.887,0.547C-8.888,2.939 -6.828,4.913 -4.289,4.955C-1.748,4.997 0.311,3.091 0.31,0.698C0.311,-1.695 -1.748,-3.669 -4.289,-3.711Z" style="fill:none;fill-rule:nonzero;stroke:white;stroke-width:1.49px;"></path> </g> <g transform="matrix(-0.667069,-0.744996,-0.744996,0.667069,379.746,405.097)"> <path d="M-2.109,-4.717C-3.685,-4.62 -4.963,-3.276 -4.963,-1.714C-4.963,-0.151 -3.686,1.038 -2.109,0.942C-0.533,0.846 0.745,-0.5 0.745,-2.062C0.745,-3.624 -0.533,-4.813 -2.109,-4.717" style="fill:white;fill-rule:nonzero;"></path> </g> <g transform="matrix(-0.667069,-0.744996,-0.744996,0.667069,379.746,405.097)"> <path d="M-2.109,-4.717C-3.685,-4.62 -4.963,-3.276 -4.963,-1.714C-4.963,-0.151 -3.686,1.038 -2.109,0.942C-0.533,0.846 0.745,-0.5 0.745,-2.062C0.745,-3.624 -0.533,-4.813 -2.109,-4.717Z" style="fill:none;fill-rule:nonzero;stroke:white;stroke-width:1.49px;"></path> </g> <g transform="matrix(0,-1,-1,0,377.936,340.804)"> <path d="M-5.369,-5.369C-8.524,-5.369 -11.081,-2.965 -11.081,0C-11.081,2.965 -8.524,5.369 -5.369,5.369C-2.214,5.369 0.343,2.965 0.343,0C0.343,-2.965 -2.214,-5.369 -5.369,-5.369" style="fill:white;fill-rule:nonzero;"></path> </g> <g transform="matrix(0,-1,-1,0,377.936,340.804)"> <ellipse cx="-5.369" cy="0" rx="5.712" ry="5.369" style="fill:none;stroke:white;stroke-width:1.49px;"></ellipse> </g> <g transform="matrix(0,-1,-1,0,348.826,326.271)"> <path d="M-7.345,-7.345C-11.66,-7.345 -15.159,-4.057 -15.159,0C-15.159,4.056 -11.66,7.345 -7.345,7.345C-3.03,7.345 0.469,4.056 0.469,0C0.469,-4.057 -3.03,-7.345 -7.345,-7.345" style="fill:white;fill-rule:nonzero;"></path> </g> <g transform="matrix(0,-1,-1,0,348.826,326.271)"> <ellipse cx="-7.345" cy="0" rx="7.814" ry="7.345" style="fill:none;stroke:white;stroke-width:1.49px;"></ellipse> </g> <g transform="matrix(0,-1,-1,0,311.707,324.805)"> <path d="M-4.813,-4.813C-7.641,-4.813 -9.935,-2.658 -9.935,-0C-9.935,2.659 -7.641,4.813 -4.813,4.813C-1.985,4.813 0.308,2.659 0.308,-0C0.308,-2.658 -1.985,-4.813 -4.813,-4.813" style="fill:white;fill-rule:nonzero;"></path> </g> <g transform="matrix(0,-1,-1,0,311.707,324.805)"> <ellipse cx="-4.813" cy="0" rx="5.121" ry="4.813" style="fill:none;stroke:white;stroke-width:1.49px;"></ellipse> </g> <g transform="matrix(0,-1,-1,0,276.618,320.769)"> <path d="M-3.729,-3.728C-5.919,-3.728 -7.695,-2.059 -7.695,0.001C-7.695,2.06 -5.919,3.729 -3.729,3.729C-1.538,3.729 0.238,2.06 0.238,0.001C0.238,-2.059 -1.538,-3.728 -3.729,-3.728" style="fill:white;fill-rule:nonzero;"></path> </g> <g transform="matrix(0,-1,-1,0,276.618,320.769)"> <ellipse cx="-3.729" cy="0.001" rx="3.967" ry="3.729" style="fill:none;stroke:white;stroke-width:1.49px;"></ellipse> </g> <g transform="matrix(0,-1,-1,0,253.003,368.094)"> <path d="M-5.369,-5.369C-8.525,-5.369 -11.081,-2.965 -11.081,0.001C-11.081,2.965 -8.525,5.369 -5.369,5.369C-2.214,5.369 0.343,2.965 0.343,0.001C0.343,-2.965 -2.214,-5.369 -5.369,-5.369" style="fill:white;fill-rule:nonzero;"></path> </g> <g transform="matrix(0,-1,-1,0,253.003,368.094)"> <ellipse cx="-5.369" cy="0" rx="5.712" ry="5.369" style="fill:none;stroke:white;stroke-width:1.49px;"></ellipse> </g> <g transform="matrix(0,-1,-1,0,325.785,290.876)"> <path d="M-5.369,-5.369C-8.524,-5.369 -11.081,-2.965 -11.081,0C-11.081,2.965 -8.524,5.369 -5.369,5.369C-2.215,5.369 0.343,2.965 0.343,0C0.343,-2.965 -2.215,-5.369 -5.369,-5.369" style="fill:white;fill-rule:nonzero;"></path> </g> <g transform="matrix(0,-1,-1,0,325.785,290.876)"> <ellipse cx="-5.369" cy="0" rx="5.712" ry="5.369" style="fill:none;stroke:white;stroke-width:1.49px;"></ellipse> </g> <g transform="matrix(0,-1,-1,0,380.471,300.819)"> <path d="M-5.369,-5.369C-8.525,-5.369 -11.081,-2.965 -11.081,0.001C-11.081,2.966 -8.525,5.369 -5.369,5.369C-2.214,5.369 0.343,2.966 0.343,0.001C0.343,-2.965 -2.214,-5.369 -5.369,-5.369" style="fill:white;fill-rule:nonzero;"></path> </g> <g transform="matrix(0,-1,-1,0,380.471,300.819)"> <ellipse cx="-5.369" cy="0" rx="5.712" ry="5.369" style="fill:none;stroke:white;stroke-width:1.49px;"></ellipse> </g> <g transform="matrix(0,-1,-1,0,417.952,333.851)"> <path d="M-3.675,-3.675C-5.834,-3.675 -7.584,-2.03 -7.584,-0.001C-7.584,2.029 -5.834,3.675 -3.675,3.675C-1.516,3.675 0.234,2.029 0.234,-0.001C0.234,-2.03 -1.516,-3.675 -3.675,-3.675" style="fill:white;fill-rule:nonzero;"></path> </g> <g transform="matrix(0,-1,-1,0,417.952,333.851)"> <ellipse cx="-3.675" cy="0" rx="3.909" ry="3.675" style="fill:none;stroke:white;stroke-width:1.49px;"></ellipse> </g> <g transform="matrix(-0.667069,-0.744996,-0.744996,0.667069,409.875,365.938)"> <path d="M-2.107,-4.717C-3.683,-4.621 -4.961,-3.277 -4.962,-1.714C-4.961,-0.151 -3.683,1.038 -2.107,0.942C-0.531,0.845 0.747,-0.499 0.747,-2.061C0.747,-3.624 -0.53,-4.813 -2.107,-4.717" style="fill:white;fill-rule:nonzero;"></path> </g> <g transform="matrix(-0.667069,-0.744996,-0.744996,0.667069,409.875,365.938)"> <path d="M-2.107,-4.717C-3.683,-4.621 -4.961,-3.277 -4.962,-1.714C-4.961,-0.151 -3.683,1.038 -2.107,0.942C-0.531,0.845 0.747,-0.499 0.747,-2.061C0.747,-3.624 -0.53,-4.813 -2.107,-4.717Z" style="fill:none;fill-rule:nonzero;stroke:white;stroke-width:1.49px;"></path> </g> <g transform="matrix(0,-1,-1,0,387.527,373.17)"> <path d="M-3.675,-3.675C-5.834,-3.675 -7.584,-2.029 -7.584,0C-7.584,2.029 -5.834,3.675 -3.675,3.675C-1.516,3.675 0.234,2.029 0.234,0C0.234,-2.029 -1.516,-3.675 -3.675,-3.675" style="fill:white;fill-rule:nonzero;"></path> </g> <g transform="matrix(0,-1,-1,0,387.527,373.17)"> <ellipse cx="-3.675" cy="0" rx="3.909" ry="3.675" style="fill:none;stroke:white;stroke-width:1.49px;"></ellipse> </g> <g transform="matrix(0,-1,-1,0,262.742,407.647)"> <path d="M-3.187,-3.187C-5.059,-3.187 -6.576,-1.76 -6.576,0.001C-6.576,1.76 -5.059,3.187 -3.187,3.187C-1.315,3.187 0.203,1.76 0.203,0.001C0.203,-1.76 -1.315,-3.187 -3.187,-3.187" style="fill:white;fill-rule:nonzero;"></path> </g> <g transform="matrix(0,-1,-1,0,262.742,407.647)"> <ellipse cx="-3.186" cy="0" rx="3.39" ry="3.187" style="fill:none;stroke:white;stroke-width:1.49px;"></ellipse> </g> <g transform="matrix(1,0,0,1,332.049,355.904)"> <path d="M0,9.309L0,6.876L2.088,8.093L2.588,5.818L4.275,6.321L4.275,4.126L6.96,4.628L6.96,2.856L9.432,2.856L8.849,0L10.896,1.911L11.583,0" style="fill:none;fill-rule:nonzero;stroke:white;stroke-width:0.44px;"></path> </g> <g transform="matrix(1,0,0,1,329.563,370.079)"> <path d="M0,9.52L-2.784,8.779L-0.472,6.765L-3.48,5.77L-0.895,4.948L-3.48,2.221L0,1.634L-2.486,0" style="fill:none;fill-rule:nonzero;stroke:white;stroke-width:0.44px;"></path> </g> <g transform="matrix(1,0,0,1,349.847,358.865)"> <path d="M0,-1.903L2.585,-3.596L2.585,-1.05L5.071,-2.323L3.977,0.107L6.96,0.107L5.469,1.693L8.054,1.667" style="fill:none;fill-rule:nonzero;stroke:white;stroke-width:0.44px;"></path> </g> <g transform="matrix(1,0,0,1,331.254,387.321)"> <path d="M0,-1.164L2.685,-2.75L2.685,0.5L4.176,-1.125L4.574,1.163L6.049,-0.794L6.587,1.586L8.252,-0.582L8.949,1.586L10.639,-0.582L11.691,1.586L12.379,-0.638" style="fill:none;fill-rule:nonzero;stroke:white;stroke-width:0.44px;"></path> </g> <g transform="matrix(1,0,0,1,347.809,384.571)"> <path d="M0,6.373L1.018,4.866L3.331,6.373L3.331,3.25L5.543,4.811L6.562,2.112L8.7,3.25L8.362,0.952L11.22,2.168L10.092,0" style="fill:none;fill-rule:nonzero;stroke:white;stroke-width:0.44px;"></path> </g> <g transform="matrix(1,0,0,1,362.176,375.85)"> <path d="M0,7.972L0,5.548L2.113,6.076L1.057,3.749L3.468,4.49L1.734,2.162L4.972,2.162L2.113,0" style="fill:none;fill-rule:nonzero;stroke:white;stroke-width:0.44px;"></path> </g> <g transform="matrix(1,0,0,1,365.184,362.225)"> <path d="M0,10.71L-1.616,9.488L0.46,7.854L-1.317,7.854L0,6.373L-3.008,5.352L-0.895,4.023L-3.008,3.623L-1.274,2.248L-4.102,1.719L-0.895,0L-3.306,0" style="fill:none;fill-rule:nonzero;stroke:white;stroke-width:0.44px;"></path> </g> <g transform="matrix(1,0,0,1,632.341,287.648)"> <path d="M0,357.036C7.04,334.678 15.537,313.144 29.549,294.554C32.711,290.358 36.197,286.44 39.441,282.312C39.98,281.627 40.385,280.468 40.273,279.612C38.63,266.963 39.12,254.44 42.597,242.203C43.665,238.443 45.738,235.01 47.321,231.413C48.176,229.472 49.672,229.146 51.395,229.598C55.029,230.554 58.649,231.574 62.264,232.615C63.258,232.901 64.21,233.351 65.544,233.867C65.997,230.558 66.519,227.597 66.792,224.61C67.666,215.049 67.449,205.509 65.852,196.043C65.667,194.951 64.997,193.787 64.241,192.994C56.872,185.262 47.779,180.298 38.824,175.079C31.607,170.873 24.094,167.018 17.513,161.853C5.932,152.764 -2.104,140.387 -8.184,126.581C-16.144,108.507 -19.343,89.232 -20.462,69.518C-20.993,60.169 -20.885,50.773 -20.908,41.398C-20.914,38.814 -20.523,36.19 -20.006,33.656C-19.504,31.198 -20.371,30.178 -22.516,29.749C-27.04,28.844 -31.371,29.621 -35.374,31.802C-46.234,37.718 -53.723,46.687 -56.583,59.541C-58.237,66.978 -56.358,74.031 -54.057,80.962C-50.148,92.732 -44.294,103.49 -38.585,114.324C-30.765,129.166 -22.815,143.948 -17.139,159.928C-13.656,169.73 -11.237,179.763 -11.214,190.364C-11.166,212.269 -26.527,227.945 -39.679,232.463C-48.16,235.377 -56.808,234.972 -65.305,232.583C-70.393,231.153 -75.3,228.993 -80.288,227.161C-80.243,226.929 -80.198,226.697 -80.154,226.466C-78.104,225.587 -75.967,224.886 -74.02,223.801C-63.92,218.176 -58.633,206.434 -60.303,193.982C-61.476,185.234 -65.141,177.704 -69.672,170.471C-78.995,155.584 -88.418,140.748 -95.797,124.61C-102.432,110.102 -107.436,95.042 -107.096,78.666C-106.597,54.619 -97.019,35.38 -78.853,21.075C-69.071,13.372 -58.279,8.018 -46.149,6.014C-45.446,5.898 -44.765,5.636 -43.756,5.352C-45.484,3.241 -47.107,1.334 -48.651,-0.644C-53.437,-6.776 -57.705,-13.204 -58.841,-21.373C-59.366,-25.149 -58.584,-28.666 -56.738,-31.858C-54.203,-36.242 -49.794,-37.311 -45.44,-34.663C-39.778,-31.218 -36.136,-25.772 -32.965,-19.941C-30.569,-15.535 -28.366,-11.011 -26.293,-6.961C-26.293,-10.416 -26.287,-14.255 -26.295,-18.094C-26.304,-23.034 -25.59,-27.816 -23.192,-32.123C-20.683,-36.632 -16.723,-38.003 -12.281,-35.642C-5.373,-31.969 -1.736,-25.545 0.139,-17.828C1.947,-10.385 0.731,-3.193 -1.544,3.9C-1.702,4.391 -1.878,4.876 -2.028,5.37C-2.044,5.42 -1.948,5.509 -1.895,5.594C0.586,3.017 3.116,0.493 5.538,-2.145C20.745,-18.712 39.487,-28.308 60.383,-33.644C76.359,-37.724 92.535,-39.775 108.969,-38.375C125.534,-36.964 141.072,-31.519 156.023,-24.076C160.52,-21.838 164.763,-19.028 169.179,-16.599C169.894,-16.206 171.163,-16.019 171.746,-16.429C181.662,-23.403 192.41,-24.12 203.481,-20.913C216.363,-17.182 227.589,-10.311 236.415,0.548C242.858,8.476 247.24,18.302 249.001,28.61C250.863,39.512 249.071,50.109 246.256,60.636C244.534,67.07 241.574,72.943 237.874,78.812C233.666,70.336 227.935,63.703 221.217,57.635C223.576,78.784 219.606,98.323 208.415,115.738C213.562,120.336 221.021,124.204 227.08,123.512C224.803,124.391 222.577,125.503 220.235,126.087C217.801,126.693 215.254,126.789 211.998,127.206C214.934,132.321 217.568,137.254 220.518,141.964C224.106,147.696 228.259,152.96 233.637,156.934C234.958,157.911 234.991,158.945 234.006,159.875C232.197,161.582 230.313,163.258 228.259,164.598C225.765,166.224 223.062,167.489 220.449,168.911C219.126,169.633 218.613,170.555 219.17,172.248C219.895,174.453 220.313,176.773 220.834,179.051C222.009,184.196 221.418,186.697 216.989,188.986C213.089,191.002 211.4,193.542 211.412,198.166C211.423,202.225 208.73,204.857 205.513,206.826C204.043,207.725 202.556,208.72 201.363,209.978C199.665,211.771 198.871,214.034 199.584,216.652C199.606,216.735 199.613,216.823 199.631,216.908C201.71,226.928 199.174,228.475 190.282,229.749C181.404,231.021 172.885,228.412 164.62,225.37C158.084,222.965 151.886,219.537 145.393,216.981C135.079,212.92 125.306,214.483 116.935,222.065C114.22,224.523 112.599,228.485 110.834,231.963C107.838,237.868 105.546,244.089 104.622,251.286C108.979,253.446 113.463,255.663 117.941,257.893C126.22,262.017 134.585,265.984 141.886,271.978C145.345,274.819 148.253,278.179 150.202,282.414C151.57,285.384 151.973,288.271 150.359,291.319C148.2,295.401 146.109,299.528 144.117,303.705C143.778,304.417 143.765,305.678 144.139,306.343C148.282,313.717 152.679,320.932 156.706,328.376C159.852,334.191 162.749,340.178 165.453,346.241L172.894,367.719C172.894,367.719 -23.153,396.811 0,357.036Z" style="fill:none;fill-rule:nonzero;stroke:white;stroke-width:5.24px;"></path> </g> <g transform="matrix(-0.252187,-0.967679,-0.967679,0.252187,676.025,380.633)"> <path d="M-24.179,18.685L14.44,18.685" style="fill:none;fill-rule:nonzero;stroke:white;stroke-width:1.75px;"></path> </g> <g transform="matrix(0.459993,-0.887923,-0.887923,-0.459993,680.914,366.164)"> <path d="M-13.861,22.791L37.475,22.791" style="fill:none;fill-rule:nonzero;stroke:white;stroke-width:1.75px;"></path> </g> <g transform="matrix(0.875235,-0.483697,-0.483697,-0.875235,688.562,329.913)"> <path d="M-3.274,12.693L49.211,12.694" style="fill:none;fill-rule:nonzero;stroke:white;stroke-width:1.75px;"></path> </g> <g transform="matrix(0.984793,0.173733,0.173733,-0.984793,731.194,289.949)"> <path d="M-0.38,-4.337L49.548,-4.337" style="fill:none;fill-rule:nonzero;stroke:white;stroke-width:1.75px;"></path> </g> <g transform="matrix(0.757305,0.653062,0.653062,-0.757305,798.891,297.377)"> <path d="M-5.464,-14.703L39.565,-14.704" style="fill:none;fill-rule:nonzero;stroke:white;stroke-width:1.75px;"></path> </g> <g transform="matrix(-0.216124,0.976366,0.976366,0.216124,828.217,356.095)"> <path d="M-15.415,-12.376L9.936,-12.376" style="fill:none;fill-rule:nonzero;stroke:white;stroke-width:1.75px;"></path> </g> <g transform="matrix(0.437607,-0.899166,-0.899166,-0.437607,729.01,322.915)"> <path d="M-8.535,13.645L21.817,13.646" style="fill:none;fill-rule:nonzero;stroke:white;stroke-width:1.75px;"></path> </g> <g transform="matrix(0.533719,0.845662,0.845662,-0.533719,746.285,296.309)"> <path d="M-8.326,-15.1L27.386,-15.1" style="fill:none;fill-rule:nonzero;stroke:white;stroke-width:1.75px;"></path> </g> <g transform="matrix(0.745953,-0.665999,-0.665999,-0.745953,765.082,332.925)"> <path d="M-4.186,10.974L28.77,10.974" style="fill:none;fill-rule:nonzero;stroke:white;stroke-width:1.75px;"></path> </g> <g transform="matrix(0,1,1,0,798.166,324.089)"> <path d="M-16.396,-16.396L16.396,-16.396" style="fill:none;fill-rule:nonzero;stroke:white;stroke-width:1.75px;"></path> </g> <g transform="matrix(0.992519,0.122089,0.122089,-0.992519,679.906,321.831)"> <path d="M-0.117,-1.908L31.139,-1.908" style="fill:none;fill-rule:nonzero;stroke:white;stroke-width:1.75px;"></path> </g> <g transform="matrix(0.482021,0.876159,0.876159,-0.482021,695.925,326.126)"> <path d="M-8.334,-14.097L23.845,-14.097" style="fill:none;fill-rule:nonzero;stroke:white;stroke-width:1.75px;"></path> </g> <g transform="matrix(0.920929,-0.389731,-0.389731,-0.920929,661.875,377.784)"> <path d="M-1.545,7.616L37.538,7.616" style="fill:none;fill-rule:nonzero;stroke:white;stroke-width:1.75px;"></path> </g> <g transform="matrix(0.523189,-0.852217,-0.852217,-0.523189,693.112,409.271)"> <path d="M-13.196,23.586L42.155,23.586" style="fill:none;fill-rule:nonzero;stroke:white;stroke-width:1.75px;"></path> </g> <g transform="matrix(-0.0511244,-0.998692,-0.998692,0.0511244,716.124,377.716)"> <path d="M-16.366,15.55L14.774,15.55" style="fill:none;fill-rule:nonzero;stroke:white;stroke-width:1.75px;"></path> </g> <g transform="matrix(0.952669,-0.304011,-0.304011,-0.952669,666.625,415.682)"> <path d="M-0.889,5.712L36.688,5.712" style="fill:none;fill-rule:nonzero;stroke:white;stroke-width:1.75px;"></path> </g> <g transform="matrix(0.429327,-0.903149,-0.903149,-0.429327,715.916,353.032)"> <path d="M-8.221,13.011L20.591,13.011" style="fill:none;fill-rule:nonzero;stroke:white;stroke-width:1.75px;"></path> </g> <g transform="matrix(0.973962,0.226711,0.226711,-0.973962,705.217,356.572)"> <path d="M-0.441,-3.841L33.439,-3.841" style="fill:none;fill-rule:nonzero;stroke:white;stroke-width:1.75px;"></path> </g> <g transform="matrix(0.984849,0.173414,0.173414,-0.984849,716.513,325.044)"> <path d="M-0.224,-2.56L29.307,-2.561" style="fill:none;fill-rule:nonzero;stroke:white;stroke-width:1.75px;"></path> </g> <g transform="matrix(0.876658,-0.481115,-0.481115,-0.876658,712.987,366.239)"> <path d="M-2.969,11.582L45.177,11.582" style="fill:none;fill-rule:nonzero;stroke:white;stroke-width:1.75px;"></path> </g> <g transform="matrix(-0.0433015,0.999062,0.999062,0.0433015,760.633,347.405)"> <path d="M-11.505,-11.017L10.55,-11.017" style="fill:none;fill-rule:nonzero;stroke:white;stroke-width:1.75px;"></path> </g> <g transform="matrix(0.841104,-0.540874,-0.540874,-0.841104,713.987,403.618)"> <path d="M-2.976,10.13L34.482,10.13" style="fill:none;fill-rule:nonzero;stroke:white;stroke-width:1.75px;"></path> </g> <g transform="matrix(0.971077,0.238765,0.238765,-0.971077,708.582,393.637)"> <path d="M-0.599,-4.942L40.798,-4.942" style="fill:none;fill-rule:nonzero;stroke:white;stroke-width:1.75px;"></path> </g> <g transform="matrix(0.99557,-0.094027,-0.094027,-0.99557,749.844,408.154)"> <path d="M-0.076,1.617L34.318,1.617" style="fill:none;fill-rule:nonzero;stroke:white;stroke-width:1.75px;"></path> </g> <g transform="matrix(0.161075,-0.986942,-0.986942,-0.161075,799.138,393.019)"> <path d="M-10.992,12.932L15.213,12.932" style="fill:none;fill-rule:nonzero;stroke:white;stroke-width:1.75px;"></path> </g> <g transform="matrix(0.000911784,1,1,-0.000911784,757.977,392.33)"> <path d="M-10.958,-10.968L10.978,-10.968" style="fill:none;fill-rule:nonzero;stroke:white;stroke-width:1.75px;"></path> </g> <g transform="matrix(0.748324,0.663333,0.663333,-0.748324,768.284,373.501)"> <path d="M-4.298,-11.329L29.858,-11.329" style="fill:none;fill-rule:nonzero;stroke:white;stroke-width:1.75px;"></path> </g> <g transform="matrix(0.99833,0.0577693,0.0577693,-0.99833,760.427,371.474)"> <path d="M-0.022,-0.762L26.376,-0.762" style="fill:none;fill-rule:nonzero;stroke:white;stroke-width:1.75px;"></path> </g> <g transform="matrix(0.76945,-0.638707,-0.638707,-0.76945,764.904,367.005)"> <path d="M-2.996,8.3L22.994,8.3" style="fill:none;fill-rule:nonzero;stroke:white;stroke-width:1.75px;"></path> </g> <g transform="matrix(0.906967,0.421203,0.421203,-0.906967,758.533,328.899)"> <path d="M-1.017,-4.606L20.853,-4.606" style="fill:none;fill-rule:nonzero;stroke:white;stroke-width:1.75px;"></path> </g> <g transform="matrix(0.975352,-0.220654,-0.220654,-0.975352,784.402,347.803)"> <path d="M-0.437,3.914L35.039,3.914" style="fill:none;fill-rule:nonzero;stroke:white;stroke-width:1.75px;"></path> </g> <g transform="matrix(0.877974,0.478708,0.478708,-0.877974,788.102,341.016)"> <path d="M-2.135,-8.376L32.859,-8.376" style="fill:none;fill-rule:nonzero;stroke:white;stroke-width:1.75px;"></path> </g> <g transform="matrix(0.360064,0.932927,0.932927,-0.360064,795.01,351.507)"> <path d="M-8.217,-11.98L17.464,-11.98" style="fill:none;fill-rule:nonzero;stroke:white;stroke-width:1.75px;"></path> </g> <g transform="matrix(0.933216,-0.359316,-0.359316,-0.933216,793.506,377.565)"> <path d="M-0.817,4.393L23.636,4.393" style="fill:none;fill-rule:nonzero;stroke:white;stroke-width:1.75px;"></path> </g> <g transform="matrix(1,0,0,1,747.982,381.278)"> <path d="M0,-23.699C-0.345,-23.648 -0.687,-23.567 -1.028,-23.453C-2.753,-22.874 -4.361,-21.553 -5.802,-20.419C-7.781,-18.859 -9.589,-16.946 -10.748,-14.612C-11.91,-12.271 -12.509,-9.103 -11.616,-6.554C-10.793,-4.206 -8.865,-2.417 -6.761,-1.399C-4.212,-0.167 -1.327,0.176 1.437,0.402C3.842,0.599 6.616,0.265 8.553,-1.4C10.585,-3.147 12.063,-5.585 12.304,-8.378C12.569,-11.447 11.508,-14.482 10.124,-17.12C8.271,-20.651 4.063,-24.298 0,-23.699Z" style="fill:none;fill-rule:nonzero;stroke:white;stroke-width:1.49px;"></path> </g> <g transform="matrix(0,-1,-1,0,748.132,365.735)"> <ellipse cx="-3.888" cy="0" rx="4.137" ry="3.888" style="fill:none;stroke:white;stroke-width:1.49px;"></ellipse> </g> <g transform="matrix(0,-1,-1,0,699.07,350.312)"> <path d="M-8.129,-8.129C-12.905,-8.129 -16.776,-4.489 -16.776,0C-16.776,4.489 -12.905,8.129 -8.129,8.129C-3.353,8.129 0.518,4.489 0.518,0C0.518,-4.489 -3.353,-8.129 -8.129,-8.129" style="fill:white;fill-rule:nonzero;"></path> </g> <g transform="matrix(0,-1,-1,0,699.07,350.312)"> <ellipse cx="-8.129" cy="0" rx="8.647" ry="8.129" style="fill:none;stroke:white;stroke-width:1.49px;"></ellipse> </g> <g transform="matrix(0,-1,-1,0,702.823,392.237)"> <path d="M-5.369,-5.369C-8.524,-5.369 -11.081,-2.965 -11.081,0C-11.081,2.966 -8.524,5.369 -5.369,5.369C-2.214,5.369 0.343,2.966 0.343,0C0.343,-2.965 -2.214,-5.369 -5.369,-5.369" style="fill:white;fill-rule:nonzero;"></path> </g> <g transform="matrix(0,-1,-1,0,702.823,392.237)"> <ellipse cx="-5.369" cy="0" rx="5.712" ry="5.369" style="fill:none;stroke:white;stroke-width:1.49px;"></ellipse> </g> <g transform="matrix(0.143537,-0.989645,-0.989645,-0.143537,747.376,402.397)"> <path d="M-4.288,-3.711C-6.828,-3.753 -8.887,-1.847 -8.887,0.546C-8.887,2.939 -6.828,4.913 -4.288,4.956C-1.748,4.998 0.311,3.092 0.311,0.699C0.31,-1.695 -1.748,-3.669 -4.288,-3.711" style="fill:white;fill-rule:nonzero;"></path> </g> <g transform="matrix(0.143537,-0.989645,-0.989645,-0.143537,747.376,402.397)"> <path d="M-4.288,-3.711C-6.828,-3.753 -8.887,-1.847 -8.887,0.546C-8.887,2.939 -6.828,4.913 -4.288,4.956C-1.748,4.998 0.311,3.092 0.311,0.699C0.31,-1.695 -1.748,-3.669 -4.288,-3.711Z" style="fill:none;fill-rule:nonzero;stroke:white;stroke-width:1.49px;"></path> </g> <g transform="matrix(-0.667069,-0.744996,-0.744996,0.667069,781.046,403.007)"> <path d="M-2.107,-4.717C-3.683,-4.621 -4.961,-3.277 -4.962,-1.714C-4.962,-0.151 -3.684,1.037 -2.107,0.942C-0.531,0.845 0.747,-0.499 0.747,-2.061C0.747,-3.624 -0.531,-4.814 -2.107,-4.717" style="fill:white;fill-rule:nonzero;"></path> </g> <g transform="matrix(-0.667069,-0.744996,-0.744996,0.667069,781.046,403.007)"> <path d="M-2.107,-4.717C-3.683,-4.621 -4.961,-3.277 -4.962,-1.714C-4.962,-0.151 -3.684,1.037 -2.107,0.942C-0.531,0.845 0.747,-0.499 0.747,-2.061C0.747,-3.624 -0.531,-4.814 -2.107,-4.717Z" style="fill:none;fill-rule:nonzero;stroke:white;stroke-width:1.49px;"></path> </g> <g transform="matrix(0,-1,-1,0,779.235,338.712)"> <path d="M-5.369,-5.369C-8.525,-5.369 -11.081,-2.965 -11.081,0.001C-11.081,2.966 -8.525,5.369 -5.369,5.369C-2.214,5.369 0.343,2.966 0.343,0.001C0.343,-2.965 -2.214,-5.369 -5.369,-5.369" style="fill:white;fill-rule:nonzero;"></path> </g> <g transform="matrix(0,-1,-1,0,779.235,338.712)"> <ellipse cx="-5.369" cy="0" rx="5.712" ry="5.369" style="fill:none;stroke:white;stroke-width:1.49px;"></ellipse> </g> <g transform="matrix(0,-1,-1,0,750.125,324.18)"> <path d="M-7.345,-7.345C-11.66,-7.345 -15.159,-4.056 -15.159,0C-15.159,4.056 -11.66,7.345 -7.345,7.345C-3.03,7.345 0.469,4.056 0.469,0C0.469,-4.056 -3.03,-7.345 -7.345,-7.345" style="fill:white;fill-rule:nonzero;"></path> </g> <g transform="matrix(0,-1,-1,0,750.125,324.18)"> <ellipse cx="-7.345" cy="0" rx="7.814" ry="7.345" style="fill:none;stroke:white;stroke-width:1.49px;"></ellipse> </g> <g transform="matrix(0,-1,-1,0,713.006,322.713)"> <path d="M-4.813,-4.813C-7.642,-4.813 -9.935,-2.658 -9.935,-0C-9.935,2.659 -7.642,4.813 -4.813,4.813C-1.985,4.813 0.308,2.659 0.308,-0C0.308,-2.658 -1.985,-4.813 -4.813,-4.813" style="fill:white;fill-rule:nonzero;"></path> </g> <g transform="matrix(0,-1,-1,0,713.006,322.713)"> <ellipse cx="-4.813" cy="0" rx="5.121" ry="4.813" style="fill:none;stroke:white;stroke-width:1.49px;"></ellipse> </g> <g transform="matrix(0,-1,-1,0,677.916,318.678)"> <path d="M-3.729,-3.729C-5.919,-3.729 -7.696,-2.06 -7.696,0.001C-7.696,2.06 -5.919,3.729 -3.729,3.729C-1.538,3.729 0.239,2.06 0.239,0.001C0.239,-2.06 -1.538,-3.729 -3.729,-3.729" style="fill:white;fill-rule:nonzero;"></path> </g> <g transform="matrix(0,-1,-1,0,677.916,318.678)"> <ellipse cx="-3.729" cy="0" rx="3.967" ry="3.729" style="fill:none;stroke:white;stroke-width:1.49px;"></ellipse> </g> <g transform="matrix(0,-1,-1,0,654.302,366.004)"> <path d="M-5.369,-5.369C-8.524,-5.369 -11.081,-2.965 -11.081,0C-11.081,2.966 -8.524,5.369 -5.369,5.369C-2.214,5.369 0.343,2.966 0.343,0C0.343,-2.965 -2.214,-5.369 -5.369,-5.369" style="fill:white;fill-rule:nonzero;"></path> </g> <g transform="matrix(0,-1,-1,0,654.302,366.004)"> <ellipse cx="-5.369" cy="0" rx="5.712" ry="5.369" style="fill:none;stroke:white;stroke-width:1.49px;"></ellipse> </g> <g transform="matrix(0,-1,-1,0,727.084,288.785)"> <path d="M-5.369,-5.369C-8.524,-5.369 -11.081,-2.966 -11.081,0C-11.081,2.965 -8.524,5.369 -5.369,5.369C-2.214,5.369 0.343,2.965 0.343,0C0.343,-2.966 -2.214,-5.369 -5.369,-5.369" style="fill:white;fill-rule:nonzero;"></path> </g> <g transform="matrix(0,-1,-1,0,727.084,288.785)"> <ellipse cx="-5.369" cy="0" rx="5.712" ry="5.369" style="fill:none;stroke:white;stroke-width:1.49px;"></ellipse> </g> <g transform="matrix(0,-1,-1,0,781.771,298.728)"> <path d="M-5.369,-5.369C-8.523,-5.369 -11.081,-2.965 -11.081,0C-11.081,2.966 -8.523,5.369 -5.369,5.369C-2.214,5.369 0.343,2.966 0.343,0C0.343,-2.965 -2.214,-5.369 -5.369,-5.369" style="fill:white;fill-rule:nonzero;"></path> </g> <g transform="matrix(0,-1,-1,0,781.771,298.728)"> <ellipse cx="-5.369" cy="0" rx="5.712" ry="5.369" style="fill:none;stroke:white;stroke-width:1.49px;"></ellipse> </g> <g transform="matrix(0,-1,-1,0,819.25,331.76)"> <path d="M-3.675,-3.675C-5.834,-3.675 -7.584,-2.03 -7.584,-0.001C-7.584,2.029 -5.834,3.675 -3.675,3.675C-1.516,3.675 0.234,2.029 0.234,-0.001C0.234,-2.03 -1.516,-3.675 -3.675,-3.675" style="fill:white;fill-rule:nonzero;"></path> </g> <g transform="matrix(0,-1,-1,0,819.25,331.76)"> <ellipse cx="-3.675" cy="0" rx="3.909" ry="3.675" style="fill:none;stroke:white;stroke-width:1.49px;"></ellipse> </g> <g transform="matrix(-0.667069,-0.744996,-0.744996,0.667069,811.173,363.846)"> <path d="M-2.109,-4.717C-3.684,-4.621 -4.962,-3.277 -4.963,-1.714C-4.963,-0.151 -3.685,1.037 -2.109,0.942C-0.533,0.846 0.746,-0.499 0.746,-2.061C0.746,-3.624 -0.533,-4.813 -2.109,-4.717" style="fill:white;fill-rule:nonzero;"></path> </g> <g transform="matrix(-0.667069,-0.744996,-0.744996,0.667069,811.173,363.846)"> <path d="M-2.109,-4.717C-3.684,-4.621 -4.962,-3.277 -4.963,-1.714C-4.963,-0.151 -3.685,1.037 -2.109,0.942C-0.533,0.846 0.746,-0.499 0.746,-2.061C0.746,-3.624 -0.533,-4.813 -2.109,-4.717Z" style="fill:none;fill-rule:nonzero;stroke:white;stroke-width:1.49px;"></path> </g> <g transform="matrix(0,-1,-1,0,788.825,371.078)"> <path d="M-3.675,-3.675C-5.834,-3.675 -7.584,-2.029 -7.584,0C-7.584,2.029 -5.834,3.675 -3.675,3.675C-1.516,3.675 0.234,2.029 0.234,0C0.234,-2.029 -1.516,-3.675 -3.675,-3.675" style="fill:white;fill-rule:nonzero;"></path> </g> <g transform="matrix(0,-1,-1,0,788.825,371.078)"> <ellipse cx="-3.675" cy="0" rx="3.909" ry="3.675" style="fill:none;stroke:white;stroke-width:1.49px;"></ellipse> </g> <g transform="matrix(0,-1,-1,0,664.041,405.556)"> <path d="M-3.186,-3.186C-5.058,-3.186 -6.576,-1.759 -6.576,0.001C-6.576,1.76 -5.058,3.186 -3.186,3.186C-1.314,3.186 0.204,1.76 0.204,0.001C0.204,-1.759 -1.314,-3.186 -3.186,-3.186" style="fill:white;fill-rule:nonzero;"></path> </g> <g transform="matrix(0,-1,-1,0,664.041,405.556)"> <ellipse cx="-3.186" cy="0" rx="3.39" ry="3.186" style="fill:none;stroke:white;stroke-width:1.49px;"></ellipse> </g> <g transform="matrix(1,0,0,1,733.348,353.813)"> <path d="M0,9.309L0,6.876L2.089,8.092L2.589,5.818L4.275,6.321L4.275,4.125L6.961,4.628L6.961,2.856L9.433,2.856L8.85,0L10.896,1.911L11.584,0" style="fill:none;fill-rule:nonzero;stroke:white;stroke-width:0.44px;"></path> </g> <g transform="matrix(1,0,0,1,730.862,367.988)"> <path d="M0,9.52L-2.784,8.78L-0.473,6.765L-3.48,5.771L-0.895,4.948L-3.48,2.221L0,1.635L-2.485,0" style="fill:none;fill-rule:nonzero;stroke:white;stroke-width:0.44px;"></path> </g> <g transform="matrix(1,0,0,1,751.145,356.776)"> <path d="M0,-1.905L2.586,-3.597L2.586,-1.052L5.071,-2.325L3.978,0.105L6.961,0.105L5.469,1.692L8.055,1.665" style="fill:none;fill-rule:nonzero;stroke:white;stroke-width:0.44px;"></path> </g> <g transform="matrix(1,0,0,1,732.553,385.229)"> <path d="M0,-1.163L2.685,-2.75L2.685,0.501L4.176,-1.125L4.573,1.164L6.05,-0.793L6.587,1.587L8.253,-0.581L8.948,1.587L10.639,-0.581L11.691,1.587L12.379,-0.638" style="fill:none;fill-rule:nonzero;stroke:white;stroke-width:0.44px;"></path> </g> <g transform="matrix(1,0,0,1,749.107,382.48)"> <path d="M0,6.373L1.018,4.866L3.331,6.373L3.331,3.25L5.543,4.812L6.562,2.112L8.7,3.25L8.362,0.952L11.22,2.168L10.093,0" style="fill:none;fill-rule:nonzero;stroke:white;stroke-width:0.44px;"></path> </g> <g transform="matrix(1,0,0,1,763.476,373.758)"> <path d="M0,7.972L0,5.548L2.112,6.076L1.056,3.749L3.467,4.49L1.733,2.163L4.971,2.163L2.112,0" style="fill:none;fill-rule:nonzero;stroke:white;stroke-width:0.44px;"></path> </g> <g transform="matrix(1,0,0,1,766.483,360.134)"> <path d="M0,10.71L-1.616,9.489L0.459,7.854L-1.318,7.854L0,6.373L-3.008,5.352L-0.896,4.023L-3.008,3.623L-1.274,2.248L-4.102,1.719L-0.896,0L-3.307,0" style="fill:none;fill-rule:nonzero;stroke:white;stroke-width:0.44px;"></path> </g> <g transform="matrix(1,0,0,1,676.983,295.726)"> <path d="M0,118.887L75.169,123.541C75.169,123.541 81.532,131.58 93.066,130.734C104.601,129.888 125.68,109.155 118.123,89.269C118.123,89.269 166.645,86.73 155.508,42.303C151.015,24.376 138.203,10.52 123.345,1.57C105.236,-9.338 84.356,-12.167 63.785,-12.49C50.892,-12.693 37.81,-10.96 25.912,-5.668C13.141,0.012 1.446,9.069 -7.843,19.704C-17.535,30.803 -26.907,41.533 -32.238,55.883C-37.931,71.208 -37.936,88.715 -34.38,104.591C-32.215,114.26 -27.994,126.893 -17.896,129.042C-7.954,131.158 -5.966,117.617 -5.966,117.617L0,118.887Z" style="fill:none;fill-rule:nonzero;stroke:white;stroke-width:3.49px;stroke-dasharray:13.97,13.97;"></path> </g> <g> <g transform="matrix(0.93997,0,0,1,9.39529,0)"> <g transform="matrix(94.5321,0,0,94.5321,156.509,746.34)"> <path d="M0.377,0.012C0.495,0.012 0.584,-0.028 0.624,-0.072L0.598,-0.099C0.558,-0.056 0.492,-0.047 0.451,-0.047C0.298,-0.047 0.201,-0.178 0.201,-0.353C0.201,-0.489 0.251,-0.602 0.388,-0.602C0.461,-0.602 0.529,-0.57 0.553,-0.465L0.599,-0.465C0.596,-0.506 0.594,-0.552 0.592,-0.6C0.555,-0.622 0.483,-0.646 0.395,-0.646C0.186,-0.646 0.035,-0.504 0.035,-0.31C0.035,-0.131 0.167,0.012 0.377,0.012Z" style="fill:white;fill-rule:nonzero;"></path> </g> <g transform="matrix(94.5321,0,0,94.5321,217.8,746.34)"> <path d="M0.263,0.009C0.399,0.009 0.512,-0.076 0.512,-0.223C0.512,-0.364 0.41,-0.449 0.274,-0.449C0.138,-0.449 0.025,-0.364 0.025,-0.217C0.025,-0.076 0.127,0.009 0.263,0.009ZM0.278,-0.03C0.197,-0.03 0.175,-0.151 0.175,-0.245C0.175,-0.351 0.206,-0.41 0.259,-0.41C0.34,-0.41 0.362,-0.289 0.362,-0.195C0.362,-0.089 0.331,-0.03 0.278,-0.03Z" style="fill:white;fill-rule:nonzero;"></path> </g> <g transform="matrix(94.5321,0,0,94.5321,268.565,746.34)"> <path d="M0.01,-0L0.276,-0L0.276,-0.03C0.241,-0.039 0.221,-0.044 0.221,-0.088L0.221,-0.318C0.253,-0.357 0.282,-0.369 0.31,-0.369C0.35,-0.369 0.37,-0.347 0.37,-0.282L0.37,-0.088C0.37,-0.044 0.346,-0.039 0.307,-0.03L0.307,-0L0.576,-0L0.576,-0.03C0.539,-0.039 0.515,-0.044 0.515,-0.088L0.515,-0.32C0.552,-0.361 0.583,-0.369 0.605,-0.369C0.644,-0.369 0.666,-0.347 0.666,-0.282L0.666,-0.088C0.666,-0.044 0.642,-0.039 0.606,-0.03L0.606,-0L0.875,-0L0.875,-0.03C0.835,-0.039 0.811,-0.044 0.811,-0.088L0.811,-0.295C0.811,-0.371 0.788,-0.449 0.675,-0.449C0.591,-0.449 0.548,-0.405 0.512,-0.353L0.508,-0.353C0.494,-0.407 0.459,-0.449 0.377,-0.449C0.292,-0.449 0.253,-0.404 0.213,-0.353L0.185,-0.353L0.22,-0.437L0.2,-0.456C0.145,-0.425 0.076,-0.408 0.01,-0.398L0.01,-0.37C0.068,-0.373 0.076,-0.353 0.076,-0.317L0.076,-0.088C0.076,-0.044 0.054,-0.039 0.01,-0.03L0.01,-0Z" style="fill:white;fill-rule:nonzero;"></path> </g> <g transform="matrix(94.5321,0,0,94.5321,350.718,746.34)"> <path d="M0.382,-0.449C0.299,-0.449 0.235,-0.381 0.207,-0.324L0.196,-0.324L0.235,-0.437L0.215,-0.456C0.15,-0.425 0.083,-0.407 0.01,-0.398L0.01,-0.37C0.073,-0.363 0.081,-0.343 0.081,-0.307L0.081,0.087C0.081,0.134 0.057,0.136 0.01,0.145L0.01,0.175L0.306,0.175L0.306,0.145C0.253,0.136 0.226,0.134 0.226,0.087L0.226,-0.008C0.257,0.003 0.29,0.009 0.323,0.009C0.443,0.009 0.567,-0.075 0.567,-0.234C0.567,-0.373 0.473,-0.449 0.382,-0.449ZM0.315,-0.033C0.251,-0.033 0.226,-0.094 0.226,-0.157L0.226,-0.271C0.226,-0.303 0.259,-0.376 0.316,-0.376C0.377,-0.376 0.414,-0.302 0.414,-0.201C0.414,-0.105 0.383,-0.033 0.315,-0.033Z" style="fill:white;fill-rule:nonzero;"></path> </g> <g transform="matrix(94.5321,0,0,94.5321,406.681,746.34)"> <path d="M0.459,-0.098L0.459,-0.295C0.459,-0.39 0.406,-0.449 0.305,-0.449C0.215,-0.449 0.053,-0.399 0.053,-0.323C0.053,-0.299 0.071,-0.274 0.102,-0.274C0.139,-0.274 0.163,-0.299 0.191,-0.379C0.197,-0.395 0.205,-0.405 0.222,-0.405C0.282,-0.405 0.314,-0.389 0.314,-0.31L0.314,-0.291C0.295,-0.262 0.258,-0.256 0.227,-0.246C0.106,-0.211 0.02,-0.189 0.02,-0.099C0.02,-0.022 0.085,0.007 0.148,0.007C0.225,0.007 0.28,-0.036 0.314,-0.072C0.317,-0.031 0.361,0.007 0.404,0.007C0.463,-0.006 0.492,-0.025 0.534,-0.054L0.534,-0.083C0.492,-0.058 0.459,-0.067 0.459,-0.098ZM0.226,-0.059C0.187,-0.059 0.166,-0.092 0.166,-0.129C0.166,-0.163 0.188,-0.196 0.24,-0.211L0.314,-0.231L0.314,-0.115C0.289,-0.082 0.259,-0.059 0.226,-0.059Z" style="fill:white;fill-rule:nonzero;"></path> </g> <g transform="matrix(94.5321,0,0,94.5321,457.635,746.34)"> <path d="M0.181,0.009C0.292,0.009 0.382,-0.033 0.382,-0.132C0.382,-0.23 0.291,-0.267 0.217,-0.292C0.159,-0.312 0.136,-0.335 0.136,-0.364C0.136,-0.393 0.16,-0.411 0.198,-0.411C0.25,-0.411 0.283,-0.376 0.301,-0.316L0.347,-0.316L0.346,-0.411C0.322,-0.424 0.281,-0.449 0.207,-0.449C0.102,-0.449 0.025,-0.403 0.025,-0.313C0.025,-0.217 0.112,-0.179 0.176,-0.158C0.241,-0.137 0.265,-0.118 0.265,-0.083C0.265,-0.056 0.249,-0.029 0.193,-0.029C0.122,-0.029 0.092,-0.07 0.071,-0.127L0.025,-0.127L0.027,-0.031C0.053,-0.016 0.102,0.009 0.181,0.009Z" style="fill:white;fill-rule:nonzero;"></path> </g> <g transform="matrix(94.5321,0,0,94.5321,495.607,746.34)"> <path d="M0.15,-0.503C0.196,-0.503 0.236,-0.541 0.236,-0.587C0.236,-0.633 0.196,-0.669 0.15,-0.669C0.104,-0.669 0.064,-0.633 0.064,-0.587C0.064,-0.541 0.104,-0.503 0.15,-0.503ZM0.015,-0L0.292,-0L0.292,-0.03C0.246,-0.039 0.226,-0.044 0.226,-0.088L0.226,-0.437L0.205,-0.456C0.152,-0.425 0.077,-0.409 0.015,-0.398L0.015,-0.37C0.073,-0.363 0.081,-0.343 0.081,-0.307L0.081,-0.088C0.081,-0.044 0.061,-0.039 0.015,-0.03L0.015,-0Z" style="fill:white;fill-rule:nonzero;"></path> </g> <g transform="matrix(94.5321,0,0,94.5321,523.623,746.34)"> <path d="M0.275,-0.5C0.315,-0.542 0.362,-0.577 0.403,-0.603C0.39,-0.641 0.345,-0.676 0.307,-0.676C0.28,-0.638 0.25,-0.578 0.238,-0.522L0.275,-0.5ZM0.263,0.009C0.399,0.009 0.512,-0.076 0.512,-0.223C0.512,-0.364 0.41,-0.449 0.274,-0.449C0.138,-0.449 0.025,-0.364 0.025,-0.217C0.025,-0.076 0.127,0.009 0.263,0.009ZM0.278,-0.03C0.197,-0.03 0.175,-0.151 0.175,-0.245C0.175,-0.351 0.206,-0.41 0.259,-0.41C0.34,-0.41 0.362,-0.289 0.362,-0.195C0.362,-0.089 0.331,-0.03 0.278,-0.03Z" style="fill:white;fill-rule:nonzero;"></path> </g> <g transform="matrix(94.5321,0,0,94.5321,574.199,746.34)"> <path d="M0.01,-0L0.276,-0L0.276,-0.03C0.241,-0.039 0.221,-0.044 0.221,-0.088L0.221,-0.318C0.251,-0.358 0.284,-0.369 0.31,-0.369C0.343,-0.369 0.367,-0.349 0.367,-0.281L0.367,-0.088C0.367,-0.044 0.347,-0.039 0.312,-0.03L0.312,-0L0.578,-0L0.578,-0.03C0.532,-0.039 0.512,-0.044 0.512,-0.088L0.512,-0.295C0.512,-0.364 0.489,-0.449 0.382,-0.449C0.302,-0.449 0.258,-0.404 0.213,-0.353L0.185,-0.353L0.22,-0.437L0.2,-0.456C0.145,-0.425 0.076,-0.408 0.01,-0.398L0.01,-0.37C0.068,-0.363 0.076,-0.343 0.076,-0.307L0.076,-0.088C0.076,-0.044 0.056,-0.039 0.01,-0.03L0.01,-0Z" style="fill:white;fill-rule:nonzero;"></path> </g> <g transform="matrix(94.5321,0,0,94.5321,648.313,746.34)"> <path d="M0.015,-0L0.338,-0L0.338,-0.03C0.286,-0.04 0.255,-0.042 0.255,-0.109L0.255,-0.54C0.255,-0.57 0.267,-0.586 0.328,-0.586C0.443,-0.586 0.46,-0.513 0.46,-0.439C0.46,-0.36 0.437,-0.284 0.3,-0.284C0.284,-0.284 0.284,-0.241 0.3,-0.241C0.492,-0.241 0.625,-0.308 0.625,-0.445C0.625,-0.584 0.489,-0.63 0.318,-0.63L0.015,-0.63L0.015,-0.6C0.067,-0.59 0.098,-0.588 0.098,-0.521L0.098,-0.109C0.098,-0.042 0.067,-0.04 0.015,-0.03L0.015,-0Z" style="fill:white;fill-rule:nonzero;"></path> </g> <g transform="matrix(94.5321,0,0,94.5321,710.043,746.34)"> <path d="M0.293,-0.5C0.333,-0.542 0.38,-0.577 0.421,-0.603C0.408,-0.641 0.363,-0.676 0.325,-0.676C0.298,-0.638 0.268,-0.578 0.256,-0.522L0.293,-0.5ZM0.205,0.009C0.283,0.009 0.328,-0.035 0.368,-0.08L0.385,-0.08L0.379,-0L0.57,-0L0.57,-0.03C0.512,-0.04 0.504,-0.06 0.504,-0.096L0.504,-0.446C0.459,-0.438 0.359,-0.437 0.298,-0.44L0.298,-0.413C0.335,-0.407 0.359,-0.403 0.359,-0.366L0.359,-0.117C0.325,-0.077 0.302,-0.07 0.281,-0.07C0.243,-0.07 0.216,-0.095 0.216,-0.151L0.216,-0.446C0.171,-0.438 0.071,-0.437 0.01,-0.44L0.01,-0.413C0.047,-0.407 0.071,-0.403 0.071,-0.366L0.071,-0.145C0.071,-0.073 0.096,0.009 0.205,0.009Z" style="fill:white;fill-rule:nonzero;"></path> </g> <g transform="matrix(94.5321,0,0,94.5321,764.683,746.34)"> <path d="M0.01,-0L0.3,-0L0.3,-0.03C0.25,-0.039 0.226,-0.044 0.226,-0.088L0.226,-0.192C0.226,-0.26 0.261,-0.332 0.351,-0.332C0.37,-0.332 0.393,-0.329 0.417,-0.317L0.417,-0.448C0.403,-0.454 0.393,-0.456 0.378,-0.456C0.318,-0.456 0.282,-0.405 0.247,-0.315L0.217,-0.315L0.235,-0.437L0.215,-0.456C0.148,-0.425 0.081,-0.409 0.01,-0.398L0.01,-0.37C0.073,-0.364 0.081,-0.344 0.081,-0.308L0.081,-0.088C0.081,-0.044 0.057,-0.039 0.01,-0.03L0.01,-0Z" style="fill:white;fill-rule:nonzero;"></path> </g> <g transform="matrix(94.5321,0,0,94.5321,805.522,746.34)"> <path d="M0.382,-0.449C0.299,-0.449 0.235,-0.381 0.207,-0.324L0.196,-0.324L0.235,-0.437L0.215,-0.456C0.15,-0.425 0.083,-0.407 0.01,-0.398L0.01,-0.37C0.073,-0.363 0.081,-0.343 0.081,-0.307L0.081,0.087C0.081,0.134 0.057,0.136 0.01,0.145L0.01,0.175L0.306,0.175L0.306,0.145C0.253,0.136 0.226,0.134 0.226,0.087L0.226,-0.008C0.257,0.003 0.29,0.009 0.323,0.009C0.443,0.009 0.567,-0.075 0.567,-0.234C0.567,-0.373 0.473,-0.449 0.382,-0.449ZM0.315,-0.033C0.251,-0.033 0.226,-0.094 0.226,-0.157L0.226,-0.271C0.226,-0.303 0.259,-0.376 0.316,-0.376C0.377,-0.376 0.414,-0.302 0.414,-0.201C0.414,-0.105 0.383,-0.033 0.315,-0.033Z" style="fill:white;fill-rule:nonzero;"></path> </g> <g transform="matrix(94.5321,0,0,94.5321,860.983,746.34)"> <path d="M0.205,0.009C0.283,0.009 0.328,-0.035 0.368,-0.08L0.385,-0.08L0.379,-0L0.57,-0L0.57,-0.03C0.512,-0.04 0.504,-0.06 0.504,-0.096L0.504,-0.446C0.459,-0.438 0.359,-0.437 0.298,-0.44L0.298,-0.413C0.335,-0.407 0.359,-0.403 0.359,-0.366L0.359,-0.117C0.325,-0.077 0.302,-0.07 0.281,-0.07C0.243,-0.07 0.216,-0.095 0.216,-0.151L0.216,-0.446C0.171,-0.438 0.071,-0.437 0.01,-0.44L0.01,-0.413C0.047,-0.407 0.071,-0.403 0.071,-0.366L0.071,-0.145C0.071,-0.073 0.096,0.009 0.205,0.009Z" style="fill:white;fill-rule:nonzero;"></path> </g> <g transform="matrix(94.5321,0,0,94.5321,915.309,746.34)"> <path d="M0.01,-0L0.3,-0L0.3,-0.03C0.25,-0.039 0.226,-0.044 0.226,-0.088L0.226,-0.192C0.226,-0.26 0.261,-0.332 0.351,-0.332C0.37,-0.332 0.393,-0.329 0.417,-0.317L0.417,-0.448C0.403,-0.454 0.393,-0.456 0.378,-0.456C0.318,-0.456 0.282,-0.405 0.247,-0.315L0.217,-0.315L0.235,-0.437L0.215,-0.456C0.148,-0.425 0.081,-0.409 0.01,-0.398L0.01,-0.37C0.073,-0.364 0.081,-0.344 0.081,-0.308L0.081,-0.088C0.081,-0.044 0.057,-0.039 0.01,-0.03L0.01,-0Z" style="fill:white;fill-rule:nonzero;"></path> </g> <g transform="matrix(94.5321,0,0,94.5321,955.142,746.34)"> <path d="M0.459,-0.098L0.459,-0.295C0.459,-0.39 0.406,-0.449 0.305,-0.449C0.215,-0.449 0.053,-0.399 0.053,-0.323C0.053,-0.299 0.071,-0.274 0.102,-0.274C0.139,-0.274 0.163,-0.299 0.191,-0.379C0.197,-0.395 0.205,-0.405 0.222,-0.405C0.282,-0.405 0.314,-0.389 0.314,-0.31L0.314,-0.291C0.295,-0.262 0.258,-0.256 0.227,-0.246C0.106,-0.211 0.02,-0.189 0.02,-0.099C0.02,-0.022 0.085,0.007 0.148,0.007C0.225,0.007 0.28,-0.036 0.314,-0.072C0.317,-0.031 0.361,0.007 0.404,0.007C0.463,-0.006 0.492,-0.025 0.534,-0.054L0.534,-0.083C0.492,-0.058 0.459,-0.067 0.459,-0.098ZM0.226,-0.059C0.187,-0.059 0.166,-0.092 0.166,-0.129C0.166,-0.163 0.188,-0.196 0.24,-0.211L0.314,-0.231L0.314,-0.115C0.289,-0.082 0.259,-0.059 0.226,-0.059Z" style="fill:white;fill-rule:nonzero;"></path> </g> </g> <g transform="matrix(0.939971,0,0,1,9.96803,0)"> <g transform="matrix(67.3554,0,0,67.3554,166.053,814.675)"> <path d="M0.025,-0L0.519,-0L0.56,-0.156L0.533,-0.156C0.496,-0.064 0.459,-0.036 0.38,-0.036L0.309,-0.036C0.233,-0.036 0.215,-0.043 0.215,-0.112L0.215,-0.529C0.215,-0.596 0.257,-0.598 0.309,-0.608L0.309,-0.63L0.025,-0.63L0.025,-0.608C0.077,-0.598 0.108,-0.596 0.108,-0.529L0.108,-0.101C0.108,-0.034 0.077,-0.032 0.025,-0.022L0.025,-0Z" style="fill:white;fill-rule:nonzero;"></path> </g> <g transform="matrix(67.3554,0,0,67.3554,204.022,814.675)"> <path d="M0.211,0.009C0.285,0.009 0.336,-0.031 0.382,-0.078L0.395,-0.078L0.389,-0L0.54,-0L0.54,-0.022C0.482,-0.032 0.474,-0.052 0.474,-0.088L0.474,-0.446C0.429,-0.438 0.379,-0.437 0.318,-0.44L0.318,-0.419C0.355,-0.413 0.379,-0.409 0.379,-0.372L0.379,-0.109C0.333,-0.067 0.288,-0.056 0.257,-0.056C0.201,-0.056 0.176,-0.091 0.176,-0.149L0.176,-0.446C0.131,-0.438 0.081,-0.437 0.02,-0.44L0.02,-0.419C0.057,-0.413 0.081,-0.409 0.081,-0.372L0.081,-0.145C0.081,-0.067 0.108,0.009 0.211,0.009Z" style="fill:white;fill-rule:nonzero;"></path> </g> <g transform="matrix(67.3554,0,0,67.3554,240.667,814.675)"> <path d="M0.266,0.009C0.352,0.009 0.421,-0.029 0.445,-0.098L0.428,-0.109C0.404,-0.073 0.356,-0.055 0.309,-0.055C0.206,-0.055 0.135,-0.138 0.135,-0.251C0.135,-0.366 0.205,-0.418 0.27,-0.418C0.303,-0.418 0.321,-0.403 0.33,-0.37C0.343,-0.322 0.362,-0.299 0.393,-0.299C0.418,-0.299 0.439,-0.314 0.439,-0.345C0.439,-0.399 0.374,-0.449 0.274,-0.449C0.14,-0.449 0.035,-0.36 0.035,-0.216C0.035,-0.077 0.136,0.009 0.266,0.009Z" style="fill:white;fill-rule:nonzero;"></path> </g> <g transform="matrix(67.3554,0,0,67.3554,272.213,814.675)"> <path d="M0.488,-0.076L0.488,-0.295C0.488,-0.378 0.463,-0.449 0.364,-0.449C0.289,-0.449 0.235,-0.407 0.193,-0.356L0.193,-0.668L0.173,-0.687C0.128,-0.656 0.084,-0.64 0.025,-0.63L0.025,-0.61C0.083,-0.603 0.098,-0.583 0.098,-0.547L0.098,-0.076C0.098,-0.032 0.065,-0.029 0.025,-0.022L0.025,-0L0.256,-0L0.256,-0.022C0.219,-0.029 0.193,-0.032 0.193,-0.076L0.193,-0.321C0.24,-0.376 0.287,-0.385 0.314,-0.385C0.369,-0.385 0.393,-0.349 0.393,-0.29L0.393,-0.076C0.393,-0.032 0.367,-0.029 0.33,-0.022L0.33,-0L0.554,-0L0.554,-0.022C0.514,-0.029 0.488,-0.032 0.488,-0.076Z" style="fill:white;fill-rule:nonzero;"></path> </g> <g transform="matrix(67.3554,0,0,67.3554,311.234,814.675)"> <path d="M0.421,-0.092L0.421,-0.297C0.421,-0.396 0.382,-0.449 0.287,-0.449C0.197,-0.449 0.059,-0.403 0.059,-0.333C0.059,-0.307 0.077,-0.294 0.098,-0.294C0.127,-0.294 0.143,-0.317 0.169,-0.383C0.177,-0.403 0.191,-0.411 0.21,-0.411C0.29,-0.411 0.326,-0.389 0.326,-0.306L0.326,-0.292C0.312,-0.265 0.278,-0.257 0.223,-0.242C0.112,-0.211 0.03,-0.185 0.03,-0.099C0.03,-0.032 0.081,0.007 0.15,0.007C0.227,0.007 0.289,-0.039 0.326,-0.075C0.327,-0.033 0.361,0.007 0.406,0.007C0.441,-0.006 0.47,-0.025 0.496,-0.054L0.496,-0.077C0.454,-0.052 0.421,-0.061 0.421,-0.092ZM0.206,-0.049C0.165,-0.049 0.13,-0.072 0.13,-0.121C0.13,-0.161 0.154,-0.19 0.228,-0.211L0.326,-0.239L0.326,-0.115C0.299,-0.08 0.254,-0.049 0.206,-0.049Z" style="fill:white;fill-rule:nonzero;"></path> </g> <g transform="matrix(67.3554,0,0,67.3554,344.936,814.675)"> <path d="M0.02,-0L0.244,-0L0.244,-0.022C0.207,-0.029 0.181,-0.032 0.181,-0.076L0.181,-0.32C0.225,-0.374 0.272,-0.385 0.302,-0.385C0.357,-0.385 0.381,-0.349 0.381,-0.289L0.381,-0.076C0.381,-0.032 0.355,-0.029 0.318,-0.022L0.318,-0L0.542,-0L0.542,-0.022C0.502,-0.029 0.476,-0.032 0.476,-0.076L0.476,-0.295C0.476,-0.378 0.451,-0.449 0.352,-0.449C0.276,-0.449 0.222,-0.406 0.179,-0.353L0.163,-0.353L0.19,-0.437L0.17,-0.456C0.125,-0.425 0.086,-0.408 0.02,-0.398L0.02,-0.378C0.078,-0.371 0.086,-0.351 0.086,-0.315L0.086,-0.076C0.086,-0.032 0.06,-0.029 0.02,-0.022L0.02,-0Z" style="fill:white;fill-rule:nonzero;"></path> </g> <g transform="matrix(67.3554,0,0,67.3554,381.715,814.675)"> <path d="M0.473,-0.088L0.473,-0.668L0.453,-0.687C0.408,-0.656 0.364,-0.64 0.303,-0.63L0.303,-0.61C0.363,-0.603 0.378,-0.583 0.378,-0.547L0.378,-0.422C0.353,-0.438 0.321,-0.449 0.278,-0.449C0.153,-0.449 0.035,-0.354 0.035,-0.202C0.035,-0.066 0.125,0.009 0.219,0.009C0.294,0.009 0.349,-0.04 0.38,-0.091L0.393,-0.091L0.385,-0L0.539,-0L0.539,-0.022C0.481,-0.032 0.473,-0.052 0.473,-0.088ZM0.271,-0.054C0.196,-0.054 0.132,-0.125 0.132,-0.239C0.132,-0.359 0.204,-0.416 0.28,-0.416C0.336,-0.416 0.368,-0.386 0.378,-0.354L0.378,-0.145C0.367,-0.104 0.334,-0.054 0.271,-0.054Z" style="fill:white;fill-rule:nonzero;"></path> </g> <g transform="matrix(67.3554,0,0,67.3554,418.986,814.675)"> <path d="M0.265,0.009C0.389,0.009 0.506,-0.076 0.506,-0.223C0.506,-0.364 0.398,-0.449 0.276,-0.449C0.152,-0.449 0.035,-0.364 0.035,-0.217C0.035,-0.076 0.143,0.009 0.265,0.009ZM0.278,-0.024C0.195,-0.024 0.139,-0.121 0.139,-0.237C0.139,-0.361 0.2,-0.416 0.263,-0.416C0.346,-0.416 0.402,-0.319 0.402,-0.203C0.402,-0.079 0.341,-0.024 0.278,-0.024Z" style="fill:white;fill-rule:nonzero;"></path> </g> <g transform="matrix(67.3554,0,0,67.3554,469.705,814.675)"> <path d="M0.266,0.009C0.352,0.009 0.421,-0.029 0.445,-0.098L0.428,-0.109C0.404,-0.073 0.356,-0.055 0.309,-0.055C0.206,-0.055 0.135,-0.138 0.135,-0.251C0.135,-0.366 0.205,-0.418 0.27,-0.418C0.303,-0.418 0.321,-0.403 0.33,-0.37C0.343,-0.322 0.362,-0.299 0.393,-0.299C0.418,-0.299 0.439,-0.314 0.439,-0.345C0.439,-0.399 0.374,-0.449 0.274,-0.449C0.14,-0.449 0.035,-0.36 0.035,-0.216C0.035,-0.077 0.136,0.009 0.266,0.009Z" style="fill:white;fill-rule:nonzero;"></path> </g> <g transform="matrix(67.3554,0,0,67.3554,501.968,814.675)"> <path d="M0.265,0.009C0.389,0.009 0.506,-0.076 0.506,-0.223C0.506,-0.364 0.398,-0.449 0.276,-0.449C0.152,-0.449 0.035,-0.364 0.035,-0.217C0.035,-0.076 0.143,0.009 0.265,0.009ZM0.278,-0.024C0.195,-0.024 0.139,-0.121 0.139,-0.237C0.139,-0.361 0.2,-0.416 0.263,-0.416C0.346,-0.416 0.402,-0.319 0.402,-0.203C0.402,-0.079 0.341,-0.024 0.278,-0.024Z" style="fill:white;fill-rule:nonzero;"></path> </g> <g transform="matrix(67.3554,0,0,67.3554,538.408,814.675)"> <path d="M0.02,-0L0.244,-0L0.244,-0.022C0.207,-0.029 0.181,-0.032 0.181,-0.076L0.181,-0.32C0.225,-0.374 0.272,-0.385 0.302,-0.385C0.357,-0.385 0.381,-0.349 0.381,-0.289L0.381,-0.076C0.381,-0.032 0.355,-0.029 0.318,-0.022L0.318,-0L0.542,-0L0.542,-0.022C0.502,-0.029 0.476,-0.032 0.476,-0.076L0.476,-0.295C0.476,-0.378 0.451,-0.449 0.352,-0.449C0.276,-0.449 0.222,-0.406 0.179,-0.353L0.163,-0.353L0.19,-0.437L0.17,-0.456C0.125,-0.425 0.086,-0.408 0.02,-0.398L0.02,-0.378C0.078,-0.371 0.086,-0.351 0.086,-0.315L0.086,-0.076C0.086,-0.032 0.06,-0.029 0.02,-0.022L0.02,-0Z" style="fill:white;fill-rule:nonzero;"></path> </g> <g transform="matrix(67.3554,0,0,67.3554,574.112,814.675)"> <path d="M0.191,-0.112L0.191,-0.402L0.312,-0.402C0.312,-0.418 0.313,-0.433 0.317,-0.449L0.191,-0.436L0.191,-0.531L0.163,-0.531C0.127,-0.486 0.079,-0.449 0.02,-0.426L0.02,-0.402L0.096,-0.402L0.096,-0.073C0.096,-0.031 0.131,0.01 0.176,0.01C0.217,-0.003 0.283,-0.031 0.32,-0.052L0.32,-0.076C0.271,-0.057 0.191,-0.041 0.191,-0.112Z" style="fill:white;fill-rule:nonzero;"></path> </g> <g transform="matrix(67.3554,0,0,67.3554,597.012,814.675)"> <path d="M0.02,-0L0.26,-0L0.26,-0.022C0.21,-0.029 0.186,-0.032 0.186,-0.076L0.186,-0.226C0.186,-0.304 0.231,-0.366 0.313,-0.366C0.342,-0.366 0.357,-0.361 0.377,-0.353L0.377,-0.448C0.363,-0.454 0.353,-0.456 0.336,-0.456C0.27,-0.456 0.23,-0.401 0.191,-0.317L0.167,-0.317L0.195,-0.437L0.175,-0.456C0.13,-0.425 0.091,-0.409 0.02,-0.398L0.02,-0.378C0.083,-0.372 0.091,-0.352 0.091,-0.316L0.091,-0.076C0.091,-0.032 0.067,-0.029 0.02,-0.022L0.02,-0Z" style="fill:white;fill-rule:nonzero;"></path> </g> <g transform="matrix(67.3554,0,0,67.3554,623.373,814.675)"> <path d="M0.421,-0.092L0.421,-0.297C0.421,-0.396 0.382,-0.449 0.287,-0.449C0.197,-0.449 0.059,-0.403 0.059,-0.333C0.059,-0.307 0.077,-0.294 0.098,-0.294C0.127,-0.294 0.143,-0.317 0.169,-0.383C0.177,-0.403 0.191,-0.411 0.21,-0.411C0.29,-0.411 0.326,-0.389 0.326,-0.306L0.326,-0.292C0.312,-0.265 0.278,-0.257 0.223,-0.242C0.112,-0.211 0.03,-0.185 0.03,-0.099C0.03,-0.032 0.081,0.007 0.15,0.007C0.227,0.007 0.289,-0.039 0.326,-0.075C0.327,-0.033 0.361,0.007 0.406,0.007C0.441,-0.006 0.47,-0.025 0.496,-0.054L0.496,-0.077C0.454,-0.052 0.421,-0.061 0.421,-0.092ZM0.206,-0.049C0.165,-0.049 0.13,-0.072 0.13,-0.121C0.13,-0.161 0.154,-0.19 0.228,-0.211L0.326,-0.239L0.326,-0.115C0.299,-0.08 0.254,-0.049 0.206,-0.049Z" style="fill:white;fill-rule:nonzero;"></path> </g> <g transform="matrix(67.3554,0,0,67.3554,672.071,814.675)"> <path d="M0.025,-0L0.266,-0L0.266,-0.022C0.226,-0.029 0.193,-0.032 0.193,-0.076L0.193,-0.668L0.173,-0.687C0.128,-0.656 0.084,-0.64 0.025,-0.63L0.025,-0.61C0.083,-0.603 0.098,-0.583 0.098,-0.547L0.098,-0.076C0.098,-0.032 0.065,-0.029 0.025,-0.022L0.025,-0Z" style="fill:white;fill-rule:nonzero;"></path> </g> <g transform="matrix(67.3554,0,0,67.3554,691.313,814.675)"> <path d="M0.421,-0.092L0.421,-0.297C0.421,-0.396 0.382,-0.449 0.287,-0.449C0.197,-0.449 0.059,-0.403 0.059,-0.333C0.059,-0.307 0.077,-0.294 0.098,-0.294C0.127,-0.294 0.143,-0.317 0.169,-0.383C0.177,-0.403 0.191,-0.411 0.21,-0.411C0.29,-0.411 0.326,-0.389 0.326,-0.306L0.326,-0.292C0.312,-0.265 0.278,-0.257 0.223,-0.242C0.112,-0.211 0.03,-0.185 0.03,-0.099C0.03,-0.032 0.081,0.007 0.15,0.007C0.227,0.007 0.289,-0.039 0.326,-0.075C0.327,-0.033 0.361,0.007 0.406,0.007C0.441,-0.006 0.47,-0.025 0.496,-0.054L0.496,-0.077C0.454,-0.052 0.421,-0.061 0.421,-0.092ZM0.206,-0.049C0.165,-0.049 0.13,-0.072 0.13,-0.121C0.13,-0.161 0.154,-0.19 0.228,-0.211L0.326,-0.239L0.326,-0.115C0.299,-0.08 0.254,-0.049 0.206,-0.049Z" style="fill:white;fill-rule:nonzero;"></path> </g> <g transform="matrix(67.3554,0,0,67.3554,740.011,814.675)"> <path d="M0.53,-0.15C0.493,-0.064 0.456,-0.036 0.377,-0.036L0.309,-0.036C0.233,-0.036 0.215,-0.043 0.215,-0.112L0.215,-0.301L0.292,-0.301C0.413,-0.301 0.425,-0.278 0.431,-0.217L0.452,-0.217L0.452,-0.419L0.431,-0.419C0.425,-0.358 0.413,-0.335 0.292,-0.335L0.215,-0.335L0.215,-0.518C0.215,-0.587 0.233,-0.594 0.309,-0.594L0.398,-0.594C0.47,-0.594 0.487,-0.559 0.496,-0.488L0.523,-0.488L0.514,-0.63L0.025,-0.63L0.025,-0.608C0.077,-0.598 0.108,-0.596 0.108,-0.529L0.108,-0.101C0.108,-0.034 0.077,-0.032 0.025,-0.022L0.025,-0L0.516,-0L0.557,-0.15L0.53,-0.15Z" style="fill:white;fill-rule:nonzero;"></path> </g> <g transform="matrix(67.3554,0,0,67.3554,779.548,814.675)"> <path d="M0.348,-0.449C0.262,-0.449 0.2,-0.381 0.173,-0.324L0.156,-0.324L0.195,-0.437L0.175,-0.456C0.13,-0.425 0.091,-0.409 0.02,-0.398L0.02,-0.378C0.083,-0.371 0.091,-0.351 0.091,-0.315L0.091,0.097C0.091,0.144 0.067,0.146 0.02,0.153L0.02,0.175L0.266,0.175L0.266,0.153C0.213,0.146 0.186,0.144 0.186,0.097L0.186,-0.012C0.214,0.001 0.247,0.009 0.285,0.009C0.417,0.009 0.525,-0.085 0.525,-0.236C0.525,-0.371 0.439,-0.449 0.348,-0.449ZM0.289,-0.025C0.211,-0.025 0.186,-0.094 0.186,-0.157L0.186,-0.271C0.186,-0.303 0.223,-0.386 0.304,-0.386C0.381,-0.386 0.426,-0.31 0.426,-0.207C0.426,-0.081 0.359,-0.025 0.289,-0.025Z" style="fill:white;fill-rule:nonzero;"></path> </g> <g transform="matrix(67.3554,0,0,67.3554,817.267,814.675)"> <path d="M0.132,-0.553C0.164,-0.553 0.192,-0.579 0.192,-0.611C0.192,-0.643 0.164,-0.669 0.132,-0.669C0.1,-0.669 0.072,-0.643 0.072,-0.611C0.072,-0.579 0.1,-0.553 0.132,-0.553ZM0.025,-0L0.252,-0L0.252,-0.022C0.212,-0.029 0.186,-0.032 0.186,-0.076L0.186,-0.437L0.165,-0.456C0.124,-0.425 0.081,-0.407 0.025,-0.398L0.025,-0.378C0.083,-0.371 0.091,-0.351 0.091,-0.315L0.091,-0.076C0.091,-0.032 0.065,-0.029 0.025,-0.022L0.025,-0Z" style="fill:white;fill-rule:nonzero;"></path> </g> <g transform="matrix(67.3554,0,0,67.3554,835.925,814.675)"> <path d="M0.025,-0L0.266,-0L0.266,-0.022C0.226,-0.029 0.193,-0.032 0.193,-0.076L0.193,-0.668L0.173,-0.687C0.128,-0.656 0.084,-0.64 0.025,-0.63L0.025,-0.61C0.083,-0.603 0.098,-0.583 0.098,-0.547L0.098,-0.076C0.098,-0.032 0.065,-0.029 0.025,-0.022L0.025,-0Z" style="fill:white;fill-rule:nonzero;"></path> </g> <g transform="matrix(67.3554,0,0,67.3554,854.809,814.675)"> <path d="M0.309,-0.055C0.205,-0.055 0.138,-0.134 0.133,-0.243L0.438,-0.243C0.47,-0.326 0.407,-0.449 0.261,-0.449C0.133,-0.449 0.035,-0.355 0.035,-0.217C0.035,-0.078 0.138,0.009 0.267,0.009C0.352,0.009 0.421,-0.029 0.445,-0.098L0.428,-0.109C0.404,-0.073 0.358,-0.055 0.309,-0.055ZM0.251,-0.416C0.328,-0.416 0.358,-0.338 0.348,-0.276L0.134,-0.276C0.14,-0.369 0.192,-0.416 0.251,-0.416Z" style="fill:white;fill-rule:nonzero;"></path> </g> <g transform="matrix(67.3554,0,0,67.3554,887.185,814.675)"> <path d="M0.348,-0.449C0.262,-0.449 0.2,-0.381 0.173,-0.324L0.156,-0.324L0.195,-0.437L0.175,-0.456C0.13,-0.425 0.091,-0.409 0.02,-0.398L0.02,-0.378C0.083,-0.371 0.091,-0.351 0.091,-0.315L0.091,0.097C0.091,0.144 0.067,0.146 0.02,0.153L0.02,0.175L0.266,0.175L0.266,0.153C0.213,0.146 0.186,0.144 0.186,0.097L0.186,-0.012C0.214,0.001 0.247,0.009 0.285,0.009C0.417,0.009 0.525,-0.085 0.525,-0.236C0.525,-0.371 0.439,-0.449 0.348,-0.449ZM0.289,-0.025C0.211,-0.025 0.186,-0.094 0.186,-0.157L0.186,-0.271C0.186,-0.303 0.223,-0.386 0.304,-0.386C0.381,-0.386 0.426,-0.31 0.426,-0.207C0.426,-0.081 0.359,-0.025 0.289,-0.025Z" style="fill:white;fill-rule:nonzero;"></path> </g> <g transform="matrix(67.3554,0,0,67.3554,924.904,814.675)"> <path d="M0.183,0.009C0.292,0.009 0.366,-0.047 0.366,-0.126C0.366,-0.216 0.271,-0.247 0.209,-0.27C0.151,-0.292 0.116,-0.313 0.116,-0.354C0.116,-0.389 0.142,-0.417 0.192,-0.417C0.254,-0.417 0.285,-0.376 0.301,-0.32L0.331,-0.32L0.332,-0.411C0.312,-0.424 0.273,-0.449 0.203,-0.449C0.1,-0.449 0.037,-0.399 0.037,-0.323C0.037,-0.243 0.11,-0.207 0.172,-0.184C0.233,-0.161 0.281,-0.146 0.281,-0.093C0.281,-0.05 0.249,-0.023 0.193,-0.023C0.124,-0.023 0.086,-0.064 0.067,-0.123L0.035,-0.123L0.037,-0.031C0.055,-0.018 0.11,0.009 0.183,0.009Z" style="fill:white;fill-rule:nonzero;"></path> </g> <g transform="matrix(67.3554,0,0,67.3554,951.555,814.675)"> <path d="M0.132,-0.553C0.164,-0.553 0.192,-0.579 0.192,-0.611C0.192,-0.643 0.164,-0.669 0.132,-0.669C0.1,-0.669 0.072,-0.643 0.072,-0.611C0.072,-0.579 0.1,-0.553 0.132,-0.553ZM0.025,-0L0.252,-0L0.252,-0.022C0.212,-0.029 0.186,-0.032 0.186,-0.076L0.186,-0.437L0.165,-0.456C0.124,-0.425 0.081,-0.407 0.025,-0.398L0.025,-0.378C0.083,-0.371 0.091,-0.351 0.091,-0.315L0.091,-0.076C0.091,-0.032 0.065,-0.029 0.025,-0.022L0.025,-0Z" style="fill:white;fill-rule:nonzero;"></path> </g> <g transform="matrix(67.3554,0,0,67.3554,970.213,814.675)"> <path d="M0.421,-0.092L0.421,-0.297C0.421,-0.396 0.382,-0.449 0.287,-0.449C0.197,-0.449 0.059,-0.403 0.059,-0.333C0.059,-0.307 0.077,-0.294 0.098,-0.294C0.127,-0.294 0.143,-0.317 0.169,-0.383C0.177,-0.403 0.191,-0.411 0.21,-0.411C0.29,-0.411 0.326,-0.389 0.326,-0.306L0.326,-0.292C0.312,-0.265 0.278,-0.257 0.223,-0.242C0.112,-0.211 0.03,-0.185 0.03,-0.099C0.03,-0.032 0.081,0.007 0.15,0.007C0.227,0.007 0.289,-0.039 0.326,-0.075C0.327,-0.033 0.361,0.007 0.406,0.007C0.441,-0.006 0.47,-0.025 0.496,-0.054L0.496,-0.077C0.454,-0.052 0.421,-0.061 0.421,-0.092ZM0.206,-0.049C0.165,-0.049 0.13,-0.072 0.13,-0.121C0.13,-0.161 0.154,-0.19 0.228,-0.211L0.326,-0.239L0.326,-0.115C0.299,-0.08 0.254,-0.049 0.206,-0.049Z" style="fill:white;fill-rule:nonzero;"></path> </g> </g> </g> </g> </g> </svg> 